<?xml version="1.0" standalone="no"?>
<!DOCTYPE svg PUBLIC "-//W3C//DTD SVG 1.1//EN" "http://www.w3.org/Graphics/SVG/1.1/DTD/svg11.dtd" >
<svg xmlns="http://www.w3.org/2000/svg">
<metadata>
Created by FontPrep 20130207 at Wed Nov 23 14:53:24 2016
 By Tina Muller
Copyright (c) 2016 by Henrique Beier. All rights reserved.
</metadata>
<defs>
<font id="5d0aa12289bfa75c8dd5dd801371ff94" horiz-adv-x='1024' >
  <font-face 
    font-family="Malva-Black"
    font-weight="900"
    font-stretch="normal"
    units-per-em="2048"
    panose-1="0 0 10 0 0 0 0 0 0 0"
    ascent="1638"
    descent="-410"
    x-height="1049"
    cap-height="1434"
    bbox="-1591 -434 2691 1999"
    underline-thickness="102"
    underline-position="-102"
    unicode-range="U+0020-FB02"
  />
<missing-glyph horiz-adv-x="1140" 
d="M401 82h338v1188h-338v-1188zM82 -205v1761h977v-1761h-977z" />
    <glyph glyph-name="fi" unicode="fi" horiz-adv-x="1349" 
d="M598 1049h666v-1049h-430v719h-236v-719h-430v719h-166v330h166v8q0 235 159 369t413 134t440 -71l-115 -338q-133 53 -250 53t-167 -40t-50 -103v-12z" />
    <glyph glyph-name="fl" unicode="fl" horiz-adv-x="1460" 
d="M1228 -25q-144 0 -239 73q-96 73 -96 224v912q-57 25 -129 24q-166 0 -166 -147v-12h180v-330h-180v-719h-430v719h-166v330h166v8q0 235 163 369t449 134t543 -157v-1022q0 -63 76 -64q23 1 37 7l22 -306q-86 -43 -230 -43z" />
    <glyph glyph-name="f_f.liga" unicode="ff" horiz-adv-x="1552" 
d="M1406 1184q-60 0 -91 -25t-31 -63v-47h254v-330h-254v-719h-430v719h-256v-719h-430v719h-166v330h166v20q0 219 138 344t378 125q129 0 227 -41l-141 -330q-95 36 -143 -16q-29 -31 -29 -78v-24h256v43q0 219 138 344t376 125q143 0 254 -41l-80 -359q-76 23 -136 23z
" />
    <glyph glyph-name="f_f_i.liga" unicode="ffi" horiz-adv-x="2035" 
d="M1284 1049h666v-1049h-430v719h-236v-719h-430v719h-256v-719h-430v719h-166v330h166v20q0 219 138 344t378 125q129 0 227 -41l-141 -330q-95 36 -143 -16q-29 -31 -29 -78v-24h256v8q0 235 159 369t413 134t438 -71l-113 -338q-133 53 -249 53t-168 -40
q-50 -40 -50 -103v-12z" />
    <glyph glyph-name="f_f_ij.liga" unicode="ff&#x133;" horiz-adv-x="2637" 
d="M2122 184v865h430v-852q0 -255 -116 -401t-359 -222l-133 324q96 56 137 120t41 166zM2337 1126q-119 0 -185 56t-66 156q0 99 66 155q66 55 185 55t185 -55t67 -155q-1 -100 -67 -156t-185 -56zM1778 1126q-119 0 -186 56q-66 56 -66 156q0 99 66 155q67 55 186 55
q120 0 186 -55t66 -155t-66 -156t-186 -56zM1950 0h-430v719h-236v-719h-430v719h-256v-719h-430v719h-166v330h166v20q0 219 138 344t378 125q129 0 227 -41l-141 -330q-95 36 -143 -16q-29 -31 -29 -78v-24h256v43q0 217 138 343t370 126q76 0 141 -17l-59 -346
q-37 8 -72 8q-36 0 -62 -30t-26 -80v-47h666v-1049z" />
    <glyph glyph-name="f_f_j.liga" unicode="ffj" horiz-adv-x="2035" 
d="M1284 1049h666v-852q0 -251 -117 -399t-360 -224l-134 324q96 55 139 119q42 65 42 167v535h-236v-719h-430v719h-256v-719h-430v719h-166v330h166v20q0 219 138 344t378 125q129 0 227 -41l-141 -330q-95 36 -143 -16q-29 -31 -29 -78v-24h256v8q0 235 159 369t413 134
t438 -71l-113 -338q-133 53 -249 53t-168 -40q-50 -40 -50 -103v-12z" />
    <glyph glyph-name="f_f_l.liga" unicode="ffl" horiz-adv-x="2146" 
d="M1914 -25q-144 0 -240 73q-97 73 -97 224v914q-61 23 -127 22q-166 0 -166 -147v-12h180v-330h-180v-719h-430v719h-256v-719h-430v719h-166v330h166v20q0 219 138 344t378 125q129 0 227 -41l-141 -330q-95 36 -143 -16q-29 -31 -29 -78v-24h256v8q0 235 163 369
t451 134t539 -157v-1022q0 -63 76 -64q23 1 39 7l22 -306q-86 -43 -230 -43z" />
    <glyph glyph-name="f_ij.liga" unicode="f&#x133;" horiz-adv-x="1953" 
d="M1438 184v865h430v-852q0 -251 -117 -399t-360 -224l-134 324q96 55 139 119q42 65 42 167zM1653 1126q-119 0 -186 56t-67 156q0 99 67 155q67 55 186 55t185 -55t67 -155q-1 -100 -67 -156t-185 -56zM1092 1126q-119 0 -186 56q-66 56 -66 156q0 99 66 155
q67 55 186 55q120 0 186 -55t66 -155t-67 -156q-66 -56 -185 -56zM1264 0h-430v719h-236v-719h-430v719h-166v330h166v43q0 217 139 343t369 126q76 0 141 -17l-59 -346q-37 8 -71 8q-33 0 -61 -30t-28 -80v-47h666v-1049z" />
    <glyph glyph-name="f_j.liga" unicode="fj" horiz-adv-x="1349" 
d="M598 1049h666v-852q0 -251 -117 -399t-361 -224l-133 324q96 55 139 119q42 65 42 167v535h-236v-719h-430v719h-166v330h166v8q0 235 159 369t413 134t440 -71l-115 -338q-133 53 -250 53t-167 -40t-50 -103v-12z" />
    <glyph glyph-name=".notdef" horiz-adv-x="1140" 
d="M401 82h338v1188h-338v-1188zM82 -205v1761h977v-1761h-977z" />
    <glyph glyph-name=".null" 
 />
    <glyph glyph-name="nonmarkingreturn" horiz-adv-x="681" 
 />
    <glyph glyph-name="space" unicode=" " horiz-adv-x="497" 
 />
    <glyph glyph-name="exclam" unicode="!" horiz-adv-x="593" 
d="M297 -23q-109 -1 -167 57t-58 164t58 164t167 58t167 -58t58 -163q0 -106 -58 -164t-167 -58zM123 508l-66 926h480l-66 -926h-348z" />
    <glyph glyph-name="quotedbl" unicode="&#x22;" horiz-adv-x="944" 
d="M555 756l-59 678h407l-57 -678h-291zM100 756l-59 678h408l-58 -678h-291z" />
    <glyph glyph-name="numbersign" unicode="#" horiz-adv-x="1583" 
d="M883 590l55 254h-236l-55 -254h236zM1499 844h-256l-55 -254h213v-250h-268l-74 -340h-305l73 340h-235l-74 -340h-305l74 340h-203v250h258l55 254h-215v250h271l73 340h305l-73 -340h235l74 340h305l-74 -340h201v-250z" />
    <glyph glyph-name="dollar" unicode="$" horiz-adv-x="1181" 
d="M694 889q445 -93 445 -407t-324 -423v-264h-444v225q-176 16 -324 72l84 369q184 -86 385 -86q156 0 156 76q0 37 -40 61t-130 41q-217 49 -337 148t-120 259q0 316 317 422v256h445v-223q166 -20 303 -82l-143 -356q-157 84 -307 84t-150 -74q0 -57 184 -98z" />
    <glyph glyph-name="percent" unicode="%" horiz-adv-x="1839" 
d="M1399 240q41 0 69 38t27 92q0 54 -28 91q-29 37 -69 37t-68 -37t-28 -91t28 -92t69 -38zM1399 -25q-182 0 -299 111t-117 283q0 173 117 283t299 110t299 -111t117 -283t-117 -282q-117 -111 -299 -111zM439 1194q-41 0 -69 -37t-28 -91t28 -92t69 -38q42 0 70 37t28 92
t-28 92t-70 37zM356 -20v8l865 1466h262v-8l-865 -1466h-262zM438 672q-182 0 -299 110t-116 283q0 172 116 283q117 110 299 110t299 -110t117 -283t-117 -283t-299 -110z" />
    <glyph glyph-name="ampersand" unicode="&#x26;" horiz-adv-x="1468" 
d="M636 279q64 0 120 28l-197 240q-65 -67 -65 -135q2 -132 142 -133zM791 1100q0 42 -26 68t-73 26t-76 -27q-28 -27 -28 -75t82 -154q70 49 96 84t25 78zM526 -25q-188 -1 -318 97t-130 272q0 119 73 214t218 194q-80 100 -114 175t-34 158q0 158 132 266q131 107 331 107
t314 -99t114 -243q0 -98 -69 -183t-214 -183l146 -177q57 111 104 265h353q-90 -304 -240 -523l250 -299l-4 -16h-432l-105 127q-145 -152 -375 -152z" />
    <glyph glyph-name="quotesingle" unicode="'" horiz-adv-x="491" 
d="M100 756l-59 678h408l-58 -678h-291z" />
    <glyph glyph-name="parenleft" unicode="(" horiz-adv-x="774" 
d="M92 635q0 514 258 860h412q-256 -375 -256 -860t256 -860h-412q-258 346 -258 860z" />
    <glyph glyph-name="parenright" unicode=")" horiz-adv-x="774" 
d="M268 635q0 485 -256 860h412q258 -346 258 -860t-258 -860h-412q256 375 256 860z" />
    <glyph glyph-name="asterisk" unicode="*" horiz-adv-x="849" 
d="M834 1190l-226 -45l156 -170l-227 -164l-111 199l-113 -199l-227 164l156 170l-226 45l86 266l211 -96l-28 227h280l-28 -227l211 96z" />
    <glyph glyph-name="plus" unicode="+" horiz-adv-x="1024" 
d="M961 815v-309h-287v-309h-320v309h-291v309h291v299h320v-299h287z" />
    <glyph glyph-name="comma" unicode="," horiz-adv-x="593" 
d="M102 469h476l-287 -807h-287z" />
    <glyph glyph-name="hyphen" unicode="-" horiz-adv-x="958" 
d="M102 408v387h754v-387h-754z" />
    <glyph glyph-name="period" unicode="." horiz-adv-x="593" 
d="M297 -23q-123 0 -192 69t-68 192q1 124 69 192t191 68t191 -69t69 -191q-1 -122 -69 -192q-68 -69 -191 -69z" />
    <glyph glyph-name="slash" unicode="/" horiz-adv-x="942" 
d="M-18 -92l553 1556h415l-553 -1556h-415z" />
    <glyph glyph-name="zero" unicode="0" horiz-adv-x="1392" 
d="M696 342q80 0 124 99t44 275t-44 276t-124 100t-124 -100t-44 -275t44 -275t124 -100zM696 -25q-295 0 -466 199t-171 543t171 543q171 198 466 198t466 -198t171 -543q0 -344 -171 -543t-466 -199z" />
    <glyph glyph-name="one" unicode="1" horiz-adv-x="1015" 
d="M418 0v928l-8 6l-258 -127l-148 375l506 252h354v-1434h-446z" />
    <glyph glyph-name="two" unicode="2" horiz-adv-x="1189" 
d="M74 0v371l497 450q80 78 80 142q0 94 -144 94t-317 -105l-165 328q250 178 548 178q253 0 397 -122t144 -316q0 -115 -54 -207t-167 -199l-248 -229l4 -16h465v-369h-1040z" />
    <glyph glyph-name="three" unicode="3" horiz-adv-x="1165" 
d="M1108 406q0 -190 -167 -310t-435 -121q-268 0 -488 121l134 355q164 -96 307 -97q88 0 139 28t51 75q0 96 -196 96h-123v324h127q180 0 180 104q1 90 -147 90t-289 -92l-148 328q223 151 479 151t394 -110q139 -110 139 -289q0 -211 -199 -309v-13q110 -41 176 -124
t66 -207z" />
    <glyph glyph-name="four" unicode="4" horiz-adv-x="1310" 
d="M674 592v328l-15 4l-231 -318l4 -14h242zM674 0v248h-651v323l653 863h428v-842h186v-344h-186v-248h-430z" />
    <glyph glyph-name="five" unicode="5" horiz-adv-x="1177" 
d="M485 -25q-244 0 -465 121l134 355q164 -96 303 -97q94 0 144 34t50 93q0 117 -213 117q-78 0 -147 -27l-178 125l90 738h856v-385h-490l-14 -117l14 -14q35 6 72 6q219 0 349 -112t130 -338t-170 -363q-170 -136 -465 -136z" />
    <glyph glyph-name="six" unicode="6" horiz-adv-x="1271" 
d="M668 309q63 0 107 44t44 116t-43 116t-106 44q-64 0 -108 -44t-44 -115t44 -116t106 -45zM1241 492q1 -236 -161 -376t-425 -141q-263 0 -434 173q-170 173 -170 483q0 180 59 330q106 275 397 415q247 120 626 58l-54 -365q-186 57 -350 -5t-207 -220l13 -10
q129 104 299 104t288 -123q119 -123 119 -323z" />
    <glyph glyph-name="seven" unicode="7" horiz-adv-x="1239" 
d="M63 1022v412h1113v-373l-543 -1061h-510l541 1014l-7 8h-594z" />
    <glyph glyph-name="eight" unicode="8" horiz-adv-x="1308" 
d="M655 283q61 0 106 40q44 40 44 104q0 65 -41 107t-110 42q-68 0 -108 -42t-40 -107t44 -105t105 -39zM655 903q51 0 87 34t36 91t-32 90t-91 33t-92 -33t-33 -90t37 -91t88 -34zM1251 397q0 -209 -164 -315t-431 -107t-432 105t-165 309q0 125 65 218t185 136v15
q-186 117 -186 304q0 188 141 292t389 104t389 -103t142 -282q0 -207 -185 -301v-16q252 -88 252 -359z" />
    <glyph glyph-name="nine" unicode="9" horiz-adv-x="1271" 
d="M602 803q63 0 108 44q44 44 44 116q0 73 -43 117t-107 44t-107 -44q-44 -44 -44 -116t43 -117q43 -44 106 -44zM401 -25q-158 0 -317 48l84 352q116 -39 244 -39t223 66q94 67 117 178l-13 8q-115 -88 -264 -88q-190 0 -317 118t-127 336q0 219 160 362q161 142 426 142
t435 -175t169 -492q0 -379 -232 -597t-588 -219z" />
    <glyph glyph-name="colon" unicode=":" horiz-adv-x="593" 
d="M297 -23q-119 -1 -183 63t-65 181q0 117 65 181q66 64 184 65q118 0 182 -65q64 -66 65 -182q-1 -116 -65 -180t-183 -63zM297 584q-119 0 -183 64t-65 180q0 116 65 180q66 64 184 63q118 0 182 -63q64 -64 65 -180q-1 -116 -65 -180t-183 -64z" />
    <glyph glyph-name="semicolon" unicode=";" horiz-adv-x="593" 
d="M102 446h453l-264 -784h-287zM297 582q-119 0 -183 64t-65 180q0 116 65 180q66 64 184 63q118 0 182 -63q64 -64 65 -180q-1 -116 -65 -180t-183 -64z" />
    <glyph glyph-name="less" unicode="&#x3c;" horiz-adv-x="1024" 
d="M961 96l-898 410v309l898 410v-353l-459 -204v-9l459 -198v-365z" />
    <glyph glyph-name="equal" unicode="=" horiz-adv-x="1024" 
d="M102 281v311h820v-311h-820zM102 729v311h820v-311h-820z" />
    <glyph glyph-name="greater" unicode="&#x3e;" horiz-adv-x="1024" 
d="M63 96v353l459 204v9l-459 198v365l898 -410v-309z" />
    <glyph glyph-name="question" unicode="?" horiz-adv-x="1034" 
d="M470 -23q-108 -1 -166 57t-58 164t58 164t166 58t166 -58t58 -163q0 -106 -58 -164t-166 -58zM557 1010q0 63 -137 63t-268 -78l-140 342q209 121 461 121t390 -99t138 -280q0 -211 -206 -346q-86 -57 -119 -107t-33 -130h-352q-111 264 143 403q123 68 123 111z" />
    <glyph glyph-name="at" unicode="@" horiz-adv-x="2000" 
d="M870 343q0 -89 100 -89q46 0 80 35t33 100v35q-41 14 -94 14t-86 -26t-33 -69zM63 557q-1 405 259 653t687 248t678 -248t250 -665q0 -267 -106 -415t-305 -148q-111 0 -186 48t-95 128l-10 37l-16 4q-37 -113 -143 -168t-252 -55t-247 85q-101 86 -101 243t123 242
q124 85 314 85q90 0 170 -21v4q0 119 -180 119q-141 0 -272 -71l-113 309q208 102 460 102t394 -124t141 -359v-277q-1 -86 51 -86t80 86t27 232q0 307 -175 490t-487 183q-313 0 -495 -178t-182 -480t178 -552l-2 -8h-289q-156 229 -156 557z" />
    <glyph glyph-name="A" unicode="A" horiz-adv-x="1599" 
d="M801 958h-6l-136 -417h275zM1100 0l-60 195h-487l-61 -195h-480l568 1434h458l549 -1434h-487z" />
    <glyph glyph-name="B" unicode="B" horiz-adv-x="1423" 
d="M586 295h141q184 0 184 146t-184 147h-141v-293zM586 840h98q182 0 182 150t-184 149h-96v-299zM137 0v1434h645q244 0 384 -108t141 -284q-1 -100 -57 -176t-150 -110v-17q133 -33 206 -125t72 -213q0 -177 -150 -289t-388 -112h-703z" />
    <glyph glyph-name="C" unicode="C" horiz-adv-x="1259" 
d="M776 -25q-332 0 -528.5 200t-196.5 541t197.5 541.5t535.5 200.5q250 0 461 -96l-147 -385q-141 80 -295 80q-277 0 -277 -340t269 -340q168 0 323 98l152 -379q-228 -121 -494 -121z" />
    <glyph glyph-name="D" unicode="D" horiz-adv-x="1501" 
d="M586 412h151q242 0 242 305t-242 305h-151v-610zM137 0v1434h600q330 0 522.5 -193.5t192.5 -523.5t-192.5 -523.5t-522.5 -193.5h-600z" />
    <glyph glyph-name="E" unicode="E" horiz-adv-x="1234" 
d="M586 362h544v-362h-993v1434h979v-363h-530v-178h467v-340h-467v-191z" />
    <glyph glyph-name="F" unicode="F" horiz-adv-x="1191" 
d="M1108 1071h-522v-219h461v-358h-461v-494h-449v1434h971v-363z" />
    <glyph glyph-name="G" unicode="G" horiz-adv-x="1458" 
d="M776 -25q-332 0 -528.5 201t-196.5 542t212 540.5t577 199.5q303 0 532 -119l-143 -378q-178 96 -358.5 96t-262.5 -88t-82 -262q0 -367 281 -367q82 0 158 29v184h-201v301h608v-739q-264 -140 -596 -140z" />
    <glyph glyph-name="H" unicode="H" horiz-adv-x="1587" 
d="M1001 1434h449v-1434h-449v518h-415v-518h-449v1434h449v-504h415v504z" />
    <glyph glyph-name="I" unicode="I" horiz-adv-x="935" 
d="M850 1110h-158v-786h158v-324h-766v324h160v786h-160v324h766v-324z" />
    <glyph glyph-name="J" unicode="J" horiz-adv-x="1036" 
d="M342 -23q-184 0 -352 76l94 404q109 -68 227 -68q150 0 150 164v881h448v-887q0 -272 -156.5 -421t-410.5 -149z" />
    <glyph glyph-name="K" unicode="K" horiz-adv-x="1429" 
d="M137 0v1434h449v-609l14 -4l346 613h496l4 -19l-438 -692l479 -703l-4 -20h-514l-369 596l-14 -4v-592h-449z" />
    <glyph glyph-name="L" unicode="L" horiz-adv-x="1181" 
d="M137 0v1434h449v-1022h522v-412h-971z" />
    <glyph glyph-name="M" unicode="M" horiz-adv-x="1910" 
d="M137 0v1434h414l403 -664h13l399 664h408v-1434h-449l4 653l-16 4l-244 -438h-238l-243 438l-17 -4l4 -653h-438z" />
    <glyph glyph-name="N" unicode="N" horiz-adv-x="1587" 
d="M1450 1434v-1434h-389l-488 694l-16 -4l8 -690h-428v1434h387l490 -691l16 5l-8 686h428z" />
    <glyph glyph-name="O" unicode="O" horiz-adv-x="1523" 
d="M761.5 371q108.5 0 172 93t63.5 253t-63.5 253t-172 93t-172 -93t-63.5 -253t63.5 -253t172 -93zM762 -25q-328 0 -519.5 200t-191.5 542t191.5 541.5t519.5 199.5t519.5 -199.5t191.5 -541.5t-191.5 -542t-519.5 -200z" />
    <glyph glyph-name="P" unicode="P" horiz-adv-x="1411" 
d="M717 649q186 0 186 206t-186 206h-131v-412h131zM717 1434q305 0 483 -156t178 -421t-179 -423t-482 -158h-131v-276h-449v1434h580z" />
    <glyph glyph-name="Q" unicode="Q" horiz-adv-x="1523" 
d="M526 717q0 -160 64 -253t172 -93q109 0 172 93t63 253t-63 253t-172 93q-108 0 -172 -93t-64 -253zM762 1458q328 0 519 -200t191 -556t-239 -548l285 -250v-33l-441 -154l-196 267q-51 -8 -119 -9q-328 0 -519 200t-192 542q-1 341 191 541t520 200z" />
    <glyph glyph-name="R" unicode="R" horiz-adv-x="1445" 
d="M586 1061v-320h139q184 0 184 160t-184 160h-139zM586 410v-410h-449v1434h588q299 0 475 -138.5t176 -371.5q0 -141 -65.5 -250t-186.5 -174l316 -500h-514l-224 410h-116z" />
    <glyph glyph-name="S" unicode="S" horiz-adv-x="1183" 
d="M528.5 -25q-274.5 0 -483.5 88l82 388q188 -94 391 -95q154 0 154 80q0 31 -27 53.5t-54.5 31.5t-86.5 26q-211 55 -323.5 154.5t-112.5 289.5q0 223 162.5 345t451.5 122q229 0 430 -92l-145 -375q-147 88 -290.5 88t-144.5 -75q0 -43 43 -64.5t142 -46.5
q205 -51 313.5 -145.5t108.5 -288.5q0 -240 -168 -362t-442.5 -122z" />
    <glyph glyph-name="T" unicode="T" horiz-adv-x="1300" 
d="M1278 1434v-412h-404v-1022h-448v1022h-403v412h1255z" />
    <glyph glyph-name="U" unicode="U" horiz-adv-x="1503" 
d="M753 -25q-288 0 -457 170t-169 461v828h448v-828q0 -236 176.5 -235.5t176.5 235.5v828h448v-828q0 -291 -167.5 -461t-455.5 -170z" />
    <glyph glyph-name="V" unicode="V" horiz-adv-x="1507" 
d="M504 0l-516 1434h501l263 -936h8l262 936h498l-521 -1434h-495z" />
    <glyph glyph-name="W" unicode="W" horiz-adv-x="2273" 
d="M412 0l-402 1434h496l213 -926h8l203 926h438l197 -926h8l203 926h487l-399 -1434h-545l-178 764h-8l-191 -764h-530z" />
    <glyph glyph-name="X" unicode="X" horiz-adv-x="1445" 
d="M-18 0l-5 20l437 723l-410 672l4 19h496l227 -414h8l207 414h492l4 -19l-410 -672l436 -723l-4 -20h-514l-243 436h-9l-217 -436h-499z" />
    <glyph glyph-name="Y" unicode="Y" horiz-adv-x="1495" 
d="M973 0h-449v496l-532 938h512l248 -496h8l241 496h502l-530 -930v-504z" />
    <glyph glyph-name="Z" unicode="Z" horiz-adv-x="1359" 
d="M82 0v283l600 749l-4 17h-576v385h1174v-283l-598 -750l4 -16h604v-385h-1204z" />
    <glyph glyph-name="bracketleft" unicode="[" horiz-adv-x="794" 
d="M145 -225v1720h607v-324h-238v-1073h238v-323h-607z" />
    <glyph glyph-name="backslash" unicode="\" horiz-adv-x="942" 
d="M545 -92l-553 1556h416l553 -1556h-416z" />
    <glyph glyph-name="bracketright" unicode="]" horiz-adv-x="794" 
d="M651 -225h-608v323h240v1073h-240v324h608v-1720z" />
    <glyph glyph-name="asciicircum" unicode="^" horiz-adv-x="1081" 
d="M23 680l299 754h438l299 -754h-383l-133 428l-137 -428h-383z" />
    <glyph glyph-name="underscore" unicode="_" horiz-adv-x="1019" 
d="M41 -287v287h938v-287h-938z" />
    <glyph glyph-name="grave" unicode="`" horiz-adv-x="679" 
d="M49 1536h428l174 -379h-286l-316 363v16z" />
    <glyph glyph-name="a" unicode="a" horiz-adv-x="1169" 
d="M424 343q0 -89 100 -89q47 0 81 35t34 100v35q-41 14 -94 14t-87 -25.5t-34 -69.5zM762 199q-72 -224 -382 -224q-146 0 -247.5 86t-101.5 243t124 242t314 85q90 0 170 -21v8q0 115 -180 115q-141 0 -273 -71l-112 309q207 102 458.5 102t394 -124t142.5 -359v-201
q0 -63 49 -63h19l22 -316q-80 -27 -172 -26.5t-151.5 48.5t-59.5 148v15z" />
    <glyph glyph-name="b" unicode="b" horiz-adv-x="1243" 
d="M639 346q61 0 94 48t33 131t-33 130t-94 47t-95 -47t-34 -130t34 -131t95 -48zM752 -25q-201 0 -299 152l-17 -4l-16 -123h-334v1536h430v-567l10 -4q92 109 265 109t293 -147t120 -405t-126 -402t-326 -145z" />
    <glyph glyph-name="c" unicode="c" horiz-adv-x="995" 
d="M631 -25q-268 0 -430 145.5t-162 400.5t163 403.5t429 148.5q195 0 342 -78l-123 -321q-82 53 -175 53t-144.5 -50t-51.5 -151q0 -205 205 -204q96 0 190 47l115 -310q-161 -84 -358 -84z" />
    <glyph glyph-name="d" unicode="d" horiz-adv-x="1245" 
d="M607 346q60 0 94 48t34 131t-33.5 130t-94 47t-94.5 -47t-34 -130t34 -131t94 -48zM491.5 -25q-198.5 0 -325.5 145.5t-127 403.5t124 402.5t298 144.5t260 -100l10 4v561h430v-1536h-336l-16 125l-14 4q-105 -154 -303.5 -154z" />
    <glyph glyph-name="e" unicode="e" horiz-adv-x="1142" 
d="M475 621h240q0 176 -120 176t-120 -176zM617 -25q-254 0 -416 146.5t-162 402.5t155.5 402.5t405.5 146.5t379 -142.5t129 -383.5q0 -72 -18 -133h-607q37 -123 230 -123q145 0 260 69l104 -282q-206 -103 -460 -103z" />
    <glyph glyph-name="f" unicode="f" horiz-adv-x="866" 
d="M720 1184q-60 0 -91 -25t-31 -63v-47h254v-330h-254v-719h-430v719h-166v330h166v43q0 219 138 344t378 125q141 0 254 -41l-80 -359q-78 23 -138 23z" />
    <glyph glyph-name="g" unicode="g" horiz-adv-x="1243" 
d="M605 346q60 0 95 48t35 131t-34.5 130t-95 47t-94.5 -47t-34 -130t34 -131t94 -48zM508 -434q-240 0 -440 100l112 309q143 -86 280.5 -86t203 47.5t65.5 131.5v36l-12 7q-82 -111 -260 -111t-298 140.5t-120 392t126 396t338 144.5t298 -172l10 4l14 144h334v-918
q0 -274 -169 -419.5t-482 -145.5z" />
    <glyph glyph-name="h" unicode="h" horiz-adv-x="1234" 
d="M86 0v1536h430v-596l16 -4q86 133 253 133t267.5 -115.5t100.5 -312.5v-641h-430v565q0 111 -90 111q-117 0 -117 -207v-469h-430z" />
    <glyph glyph-name="i" unicode="i" horiz-adv-x="602" 
d="M86 0v1049h430v-1049h-430zM301 1128q-119 0 -184.5 55.5t-65.5 154.5t65.5 154.5t184.5 55.5t185.5 -55t66.5 -155t-66.5 -155t-185.5 -55z" />
    <glyph glyph-name="j" unicode="j" horiz-adv-x="604" 
d="M88 184v865h430v-852q0 -252 -116.5 -399.5t-360.5 -223.5l-133 324q96 55 138 119.5t42 166.5zM303 1128q-119 0 -184.5 55.5t-65.5 154.5t65.5 154.5t184.5 55.5t185.5 -55t66.5 -154.5t-66.5 -155t-185.5 -55.5z" />
    <glyph glyph-name="k" unicode="k" horiz-adv-x="1236" 
d="M86 0v1536h430v-877l16 -4l224 394h483l4 -17l-321 -477l354 -535l-4 -20h-506l-234 438l-16 -4v-434h-430z" />
    <glyph glyph-name="l" unicode="l" horiz-adv-x="653" 
d="M421.5 -25q-143.5 0 -239.5 73t-96 224v1264h430v-1155q0 -63 76 -64q20 0 39 7l20 -306q-86 -43 -229.5 -43z" />
    <glyph glyph-name="m" unicode="m" horiz-adv-x="1871" 
d="M86 0v1049h332l18 -185l17 -4q94 209 315 209t305 -205l17 -4q94 209 331 209q169 0 269 -115t100 -313v-641h-430v565q0 111 -90 111q-117 0 -117 -207v-469h-430v565q0 111 -90 111q-117 0 -117 -207v-469h-430z" />
    <glyph glyph-name="n" unicode="n" horiz-adv-x="1234" 
d="M86 0v1049h332l18 -185l17 -4q94 209 331 209q170 0 269.5 -114.5t99.5 -313.5v-641h-430v565q0 111 -90 111q-117 0 -117 -207v-469h-430z" />
    <glyph glyph-name="o" unicode="o" horiz-adv-x="1214" 
d="M607 346q60 0 94 48t34 131t-33.5 130t-94 47t-94.5 -47t-34 -130t34 -131t94 -48zM606 -25q-258 0 -412.5 149.5t-154.5 400.5t154.5 399.5t412.5 148.5t413 -148.5t155 -399.5t-155 -400.5t-413 -149.5z" />
    <glyph glyph-name="p" unicode="p" horiz-adv-x="1243" 
d="M639 346q61 0 94 48t33 131t-33 130t-94 47t-95 -47t-34 -130t34 -131t95 -48zM86 -410v1459h332l16 -166l17 -4q106 195 329 194q184 0 304 -146q120 -147 120 -403t-122 -402t-293 -146t-263 110l-10 -4v-492h-430z" />
    <glyph glyph-name="q" unicode="q" horiz-adv-x="1243" 
d="M605 346q60 0 95 48t35 131t-35 130t-95 47t-94 -47t-34 -130t34 -131t94 -48zM457 -25q-178 1 -298 147t-120 404t126 402t338 145q212 0 298 -172l10 4l14 144h334v-1459h-430v492l-12 6q-82 -113 -260 -113z" />
    <glyph glyph-name="r" unicode="r" horiz-adv-x="872" 
d="M86 0v1049h330l18 -185l17 -4q57 117 167.5 168t251.5 37v-403q-166 20 -260 -42.5t-94 -195.5v-424h-430z" />
    <glyph glyph-name="s" unicode="s" horiz-adv-x="954" 
d="M425 -23q-226 0 -392 70l59 318q156 -70 330 -70q72 0 72 37q0 20 -18.5 29.5t-69.5 21.5q-172 39 -268.5 114.5t-96.5 228.5t127 250t344 97t393 -80l-114 -313q-121 76 -271 76q-74 0 -74 -36t97 -54q178 -37 277.5 -113t99.5 -213q0 -174 -134.5 -268.5t-360.5 -94.5z
" />
    <glyph glyph-name="t" unicode="t" horiz-adv-x="907" 
d="M606 -25q-207 0 -322.5 125t-115.5 338v281h-166v330h166l61 276h369v-276h254v-330h-254v-256q0 -117 107 -117q55 0 96 23l94 -318q-123 -76 -289 -76z" />
    <glyph glyph-name="u" unicode="u" horiz-adv-x="1234" 
d="M453 -20q-168 0 -269.5 105t-101.5 300v664h430v-564q0 -111 90 -110q117 0 117 188v486h430v-1049h-332l-18 186l-17 4q-93 -210 -329 -210z" />
    <glyph glyph-name="v" unicode="v" horiz-adv-x="1183" 
d="M385 0l-401 1049h458l154 -564h6l139 564h459l-403 -1049h-412z" />
    <glyph glyph-name="w" unicode="w" horiz-adv-x="1710" 
d="M309 0l-325 1049h438l117 -576h8l141 576h350l140 -576h8l98 576h440l-325 -1049h-410l-137 494h-8l-137 -494h-398z" />
    <glyph glyph-name="x" unicode="x" horiz-adv-x="1171" 
d="M-35 0l-2 20l346 531l-313 481l4 17h477l123 -250h8l131 250h443l4 -17l-322 -481l346 -531l-4 -20h-475l-156 270h-8l-141 -270h-461z" />
    <glyph glyph-name="y" unicode="y" horiz-adv-x="1181" 
d="M84 -377v346q242 -43 293 109l-393 971h454l160 -545h8l150 545h442l-340 -891q-123 -322 -299 -443t-475 -92z" />
    <glyph glyph-name="z" unicode="z" horiz-adv-x="1085" 
d="M74 0v260l399 432l-4 17h-379v340h914v-271l-400 -422l4 -16h404v-340h-938z" />
    <glyph glyph-name="braceleft" unicode="{" horiz-adv-x="774" 
d="M651 -225q-225 0 -356 77t-131 224q0 45 20 138q20 94 20 154t-38 86q-39 26 -148 25v312q109 -1 148 25t39 86q-1 60 -21 154t-20 138q0 147 131 224t356 77h80v-344h-57q-53 0 -82 -33t-29 -77t12 -106t13 -95q0 -82 -70 -138t-192 -63v-8q122 -7 192 -63t70 -138
q0 -33 -12 -95t-13 -106q0 -44 29 -77t82 -33h57v-344h-80z" />
    <glyph glyph-name="bar" unicode="|" horiz-adv-x="561" 
d="M86 -205v1741h391v-1741h-391z" />
    <glyph glyph-name="braceright" unicode="}" horiz-adv-x="774" 
d="M123 1495q225 0 356 -77t131 -224q0 -45 -20 -138t-20 -154q0 -60 38 -86q39 -26 148 -25v-312q-109 1 -148 -25t-39 -86q1 -60 21 -154q20 -93 20 -138q0 -147 -131 -224t-356 -77h-80v344h57q53 0 82 33t29 77t-12 106t-13 95q0 82 70 138t193 63v8q-123 6 -193 62
t-70 139q0 33 13 95q12 62 12 106t-29 77t-82 33h-57v344h80z" />
    <glyph glyph-name="asciitilde" unicode="~" horiz-adv-x="1024" 
d="M702 426q-86 0 -196 63t-144 64q-90 0 -75 -113l-219 -10q-63 215 22 339q86 124 234 124q86 1 196 -63t144 -64q90 0 75 113l219 10q63 -215 -23 -339t-233 -124z" />
    <glyph glyph-name="uni00A0" unicode="&#xa0;" horiz-adv-x="497" 
 />
    <glyph glyph-name="exclamdown" unicode="&#xa1;" horiz-adv-x="593" 
d="M57 -410l66 951h348l66 -951h-480zM297 629q-106 0 -166 58q-59 57 -59 163t58 164t167 57q109 0 167 -57q58 -56 58 -162t-59 -165q-60 -58 -166 -58z" />
    <glyph glyph-name="cent" unicode="&#xa2;" horiz-adv-x="1015" 
d="M434 711q0 -137 82 -187v379q-82 -55 -82 -192zM739 0h-223v176q-213 33 -341 174q-128 140 -128 358t128 366t341 183v177h223v-174q143 -16 246 -70l-117 -316q-68 37 -129 52v-424q78 12 152 45l108 -297q-125 -61 -260 -78v-172z" />
    <glyph glyph-name="sterling" unicode="&#xa3;" horiz-adv-x="1183" 
d="M637 569v-157h518v-412h-1112v412h145v157h-114v310h114v14q0 252 174 409t453 156q201 0 346 -69l-106 -351q-117 43 -221 43q-197 0 -197 -174v-28h360v-310h-360z" />
    <glyph glyph-name="currency" unicode="&#xa4;" horiz-adv-x="1349" 
d="M823 719q0 67 -42 107t-106 40q-65 0 -107 -42t-42 -106t42 -108q42 -43 107 -43t107 43t41 109zM1204 719q0 -113 -49 -211l154 -152l-248 -250l-154 154q-111 -53 -235 -53t-230 53l-153 -154l-248 250l152 150q-100 213 0 424l-152 149l248 250l153 -153
q113 51 235 51t228 -53l156 155l248 -250l-154 -151q49 -96 49 -209z" />
    <glyph glyph-name="yen" unicode="&#xa5;" horiz-adv-x="1372" 
d="M1245 827v-249h-330l-2 -3h-2v-96h334v-250h-334v-229h-448v229h-332v250h332v96h-4l-2 3h-326v249h199l-310 607h502l168 -496h12l158 496h492l-310 -607h203z" />
    <glyph glyph-name="brokenbar" unicode="&#xa6;" horiz-adv-x="561" 
d="M86 -205v684h391v-684h-391zM86 852v684h391v-684h-391z" />
    <glyph glyph-name="section" unicode="&#xa7;" horiz-adv-x="1107" 
d="M426 658q0 -62 48 -98t149 -66q55 43 55 102t-48 95t-147 67q-57 -38 -57 -100zM1016 138q0 -165 -134 -254t-366 -89t-385 66l57 315q158 -68 328 -67q74 -1 74 35t-86 65q-215 70 -315 150q-99 81 -99 216q0 174 158 279q-146 92 -146 254t134 256t356 94
q223 0 387 -76l-113 -313q-121 76 -284 76q-74 0 -74 -41q0 -33 86 -62q211 -68 314 -154t104 -224q0 -175 -150 -267q154 -94 154 -259z" />
    <glyph glyph-name="dieresis" unicode="&#xa8;" horiz-adv-x="1196" 
d="M847 1147q-97 0 -150.5 51t-53.5 143.5t53.5 143.5t150.5 51t151.5 -51t54.5 -143.5t-54.5 -143.5t-151.5 -51zM348 1147q-96 0 -150.5 51t-54.5 143.5t54.5 143.5t150.5 51t150.5 -51t54.5 -143.5t-54.5 -143.5t-150.5 -51z" />
    <glyph glyph-name="copyright" unicode="&#xa9;" horiz-adv-x="1572" 
d="M798 324q-169 0 -282 105t-113 283t121 288t289 110t281 -80l-117 -223q-61 45 -125 45t-100 -36q-35 -36 -35 -99q0 -139 135 -139q76 0 141 49l105 -219q-131 -84 -300 -84zM281 717q0 -217 145 -363t359 -145q214 0 361 145q146 144 146 362t-146 363t-360 145
t-360 -144q-145 -146 -145 -363zM786 -25q-324 0 -544 213q-220 212 -219 528q0 316 220 529q219 213 543 213t543 -213t219 -528t-219 -529t-543 -213z" />
    <glyph glyph-name="ordfeminine" unicode="&#xaa;" horiz-adv-x="806" 
d="M352 954q47 0 81 33t34 86q-37 4 -70 4q-111 0 -110 -69q-1 -54 65 -54zM285 795q-111 0 -177 48t-67 146q0 99 92 151t238 52q57 0 98 -8v10q1 76 -149 78q-74 0 -179 -49l-75 170q130 65 294 65t251 -72t87 -208v-140q0 -43 39 -43q16 0 31 6l16 -176q-57 -23 -112 -22
q-113 0 -113 123v12l-16 4q-70 -147 -258 -147z" />
    <glyph glyph-name="guillemotleft" unicode="&#xab;" horiz-adv-x="1339" 
d="M895 66l-295 460l295 459h387l4 -14l-274 -436l284 -453l-4 -16h-397zM348 66l-295 460l295 459h387l4 -14l-274 -436l285 -453l-5 -16h-397z" />
    <glyph glyph-name="logicalnot" unicode="&#xac;" horiz-adv-x="1024" 
d="M641 197v309h-578v309h898v-618h-320z" />
    <glyph glyph-name="uni00AD" unicode="&#xad;" horiz-adv-x="958" 
d="M102 408v387h754v-387h-754z" />
    <glyph glyph-name="registered" unicode="&#xae;" horiz-adv-x="1075" 
d="M494 1241v-133h55q68 0 67 68q0 66 -67 65h-55zM811 1190q0 -115 -113 -156l109 -186l-21 -25h-180l-90 189h-22v-189h-189v561h244q125 0 193 -53t69 -141zM538 707q164 -1 274 115t110 284t-111 282t-273 114t-274 -114q-110 -114 -110 -282t110 -284
q111 -115 274 -115zM537 1622q223 0 375 -148t151 -368q0 -220 -152 -371q-153 -149 -375 -149t-373 150t-151 369q0 221 151 369t374 148z" />
    <glyph glyph-name="macron" unicode="&#xaf;" horiz-adv-x="854" 
d="M23 1202v293h806v-293h-806z" />
    <glyph glyph-name="degree" unicode="&#xb0;" horiz-adv-x="913" 
d="M457 1047q47 -1 80 35t32 87q0 51 -32 87q-33 36 -80 36t-80 -36t-33 -87t33 -87t80 -35zM457 778q-176 0 -295 113t-119 279t119 278q119 113 295 113t295 -113q118 -113 118 -279q0 -167 -118 -279t-295 -112z" />
    <glyph glyph-name="plusminus" unicode="&#xb1;" horiz-adv-x="1024" 
d="M63 -14v309h898v-309h-898zM676 981h285v-309h-285v-279h-326v279h-287v309h287v268h326v-268z" />
    <glyph glyph-name="uni00B2" unicode="&#xb2;" horiz-adv-x="1155" 
d="M246 821v221l319 254q51 43 51 72q0 47 -90 47t-213 -72l-100 201q160 109 332 109t266 -70q94 -69 94 -183t-151 -233l-136 -106v-6h281v-234h-653z" />
    <glyph glyph-name="uni00B3" unicode="&#xb3;" horiz-adv-x="1140" 
d="M903 1051q-1 -104 -107 -174t-279 -70t-310 70l92 219q111 -56 217 -56t105 52q0 52 -127 51h-88v168h88q123 0 122 53q0 51 -96 51t-196 -57l-97 203q139 92 305 92q166 -1 254 -63q90 -62 91 -163q0 -127 -144 -180v-16q170 -43 170 -180z" />
    <glyph glyph-name="acute" unicode="&#xb4;" horiz-adv-x="679" 
d="M631 1536v-16l-314 -363h-288l174 379h428z" />
    <glyph glyph-name="uni00B5" unicode="&#xb5;" horiz-adv-x="1234" 
d="M82 -410v1459h430v-564q0 -111 90 -110q117 0 117 188v486h430v-1049h-332l-18 186l-17 4q-80 -199 -202 -198q-39 0 -68 22l-8 -2v-422h-422z" />
    <glyph glyph-name="paragraph" unicode="&#xb6;" horiz-adv-x="1314" 
d="M852 0v1434h326v-1434h-326zM547 406q-227 0 -361 139q-133 139 -133 375t133 374t361 140h172v-1028h-172z" />
    <glyph glyph-name="periodcentered" unicode="&#xb7;" horiz-adv-x="593" 
d="M297 434q-123 0 -192 69t-69 191t69 192q69 68 192 68t191 -68t69 -192q-1 -124 -69 -192t-191 -68z" />
    <glyph glyph-name="cedilla" unicode="&#xb8;" horiz-adv-x="686" 
d="M273 -248q52 0 53 37q0 20 -54.5 55t-54.5 77t49 85h191q-25 -27 -25 -56.5t40 -55t81 -60.5t41 -90q0 -84 -80 -131t-197 -47t-217 51l80 176q41 -41 93 -41z" />
    <glyph glyph-name="uni00B9" unicode="&#xb9;" horiz-adv-x="1050" 
d="M465 821v512l-8 4l-201 -86l-94 230l356 157h242v-817h-295z" />
    <glyph glyph-name="ordmasculine" unicode="&#xba;" horiz-adv-x="770" 
d="M385 995q45 0 70 36t24 95q0 59 -24 96q-25 36 -70 36t-70 -36t-25 -96t26 -95q24 -36 69 -36zM385 795q-162 0 -257 90q-95 89 -95 241t95 242t257 90t257 -90t95 -242t-95 -242t-257 -89z" />
    <glyph glyph-name="guillemotright" unicode="&#xbb;" horiz-adv-x="1339" 
d="M991 985l295 -461l-295 -458h-387l-4 14l274 436l-284 453l4 16h397zM444 985l295 -461l-295 -458h-387l-4 14l275 436l-285 453l4 16h397z" />
    <glyph glyph-name="onequarter" unicode="&#xbc;" horiz-adv-x="2152" 
d="M1655 324v233l-17 4l-192 -221l4 -16h205zM1655 0v135h-422v197l428 485h268v-493h139v-189h-139v-135h-274zM465 616v512l-8 5l-201 -86l-94 229l356 158h242v-818h-295zM530 -20v8l865 1466h262v-8l-864 -1466h-263z" />
    <glyph glyph-name="onehalf" unicode="&#xbd;" horiz-adv-x="2125" 
d="M1339 0v221l320 254q51 43 51 72q0 47 -90 47t-213 -72l-100 201q160 109 332 109t266 -70t94 -184t-152 -232l-135 -106v-7h281v-233h-654zM465 616v512l-8 5l-201 -86l-94 229l356 158h242v-818h-295zM530 -20v8l865 1466h262v-8l-864 -1466h-263z" />
    <glyph glyph-name="threequarters" unicode="&#xbe;" horiz-adv-x="2138" 
d="M1640 324v233l-16 4l-192 -221l4 -16h204zM1640 0v135h-421v197l428 485h268v-493h139v-189h-139v-135h-275zM862 846q0 -104 -106 -174t-280 -70q-173 0 -310 70l92 219q110 -55 216 -55t106 51t-127 51h-88v168h88q123 0 122 53q0 51 -96 51t-196 -57l-97 203
q138 92 304 92t256 -62t90 -163q0 -127 -144 -181v-16q170 -43 170 -180zM516 -20v8l864 1466h262v-8l-864 -1466h-262z" />
    <glyph glyph-name="questiondown" unicode="&#xbf;" horiz-adv-x="1030" 
d="M567 -434q-250 0 -389 99t-139 280q0 209 207 346q88 59 121 117t32 145h353q115 -287 -146 -428q-121 -68 -121 -111q0 -63 137 -63t267 78l141 -342q-213 -121 -463 -121zM573 629q-106 0 -165 58q-60 57 -60 163t58 164t166 57q106 0 166 -57q60 -56 60 -162t-59 -164
q-60 -58 -166 -59z" />
    <glyph glyph-name="Agrave" unicode="&#xc0;" horiz-adv-x="1599" 
d="M801 958h-6l-136 -417h275zM1100 0l-60 195h-487l-61 -195h-480l568 1434h458l549 -1434h-487zM1042 1546h-352l-293 281v20h473l172 -278v-23z" />
    <glyph glyph-name="Aacute" unicode="&#xc1;" horiz-adv-x="1599" 
d="M801 958h-6l-136 -417h275zM1100 0l-60 195h-487l-61 -195h-480l568 1434h458l549 -1434h-487zM559 1546v23l172 278h473v-20l-293 -281h-352z" />
    <glyph glyph-name="Acircumflex" unicode="&#xc2;" horiz-adv-x="1599" 
d="M801 958h-6l-136 -417h275zM1100 0l-60 195h-487l-61 -195h-480l568 1434h458l549 -1434h-487zM793 1669l-105 -123h-342l285 301h338l286 -301h-350l-104 123h-8z" />
    <glyph glyph-name="Atilde" unicode="&#xc3;" horiz-adv-x="1599" 
d="M801 958h-6l-136 -417h275zM1100 0l-60 195h-487l-61 -195h-480l568 1434h458l549 -1434h-487zM643 1901q78 0 172 -64.5t133 -64.5t60.5 31.5t13.5 82.5l172 10q57 -182 -19.5 -288.5t-205.5 -106.5q-78 0 -172.5 64.5t-132 64.5t-60 -31.5t-12.5 -82.5l-172 -11
q-57 184 18.5 290t204.5 106z" />
    <glyph glyph-name="Adieresis" unicode="&#xc4;" horiz-adv-x="1599" 
d="M801 958h-6l-136 -417h275zM1100 0l-60 195h-487l-61 -195h-480l568 1434h458l549 -1434h-487zM1050 1509q-97 0 -150.5 51.5t-53.5 143.5t53 143t150.5 51t151.5 -51t54 -143t-54 -143.5t-151 -51.5zM551 1509q-96 0 -150.5 51.5t-54.5 143.5t54.5 143t150.5 51
t150.5 -51t54.5 -143t-54.5 -143.5t-150.5 -51.5z" />
    <glyph glyph-name="Aring" unicode="&#xc5;" horiz-adv-x="1599" 
d="M801 958h-6l-136 -417h275zM1100 0l-60 195h-487l-61 -195h-480l568 1434h458l549 -1434h-487zM800 1823q-34 0 -57.5 -24.5t-23.5 -57.5t23.5 -57.5t57.5 -24.5t58.5 24.5t24.5 57.5t-24.5 57.5t-58.5 24.5zM801 1483q-121 0 -204 74.5t-83 183t83 183.5t204 75
t202.5 -75t81.5 -183.5t-81.5 -183t-202.5 -74.5z" />
    <glyph glyph-name="AE" unicode="&#xc6;" horiz-adv-x="2058" 
d="M963 571v490h-50l-221 -490h271zM1409 362h545v-362h-991v225h-426l-101 -225h-508l736 1434h1275v-363h-530v-178h469v-340h-469v-191z" />
    <glyph glyph-name="Ccedilla" unicode="&#xc7;" horiz-adv-x="1259" 
d="M840 -54.5q0 -19.5 25.5 -41t55 -38t55 -48t25.5 -74.5q0 -84 -79.5 -131t-196.5 -47t-217 51l80 176q41 -41 93 -41t52 37q0 20 -54 55t-54 73t26 67q-279 37 -439.5 231.5t-160.5 518t197.5 524t535.5 200.5q250 0 461 -96l-147 -385q-141 80 -295 80
q-276 0 -276.5 -340t268.5 -340q168 0 323 98l152 -379q-193 -102 -424 -119q-6 -12 -6 -31.5z" />
    <glyph glyph-name="Egrave" unicode="&#xc8;" horiz-adv-x="1234" 
d="M586 362h544v-362h-993v1434h979v-363h-530v-178h467v-340h-467v-191zM870 1546h-352l-293 281v20h473l172 -278v-23z" />
    <glyph glyph-name="Eacute" unicode="&#xc9;" horiz-adv-x="1234" 
d="M586 362h544v-362h-993v1434h979v-363h-530v-178h467v-340h-467v-191zM387 1546v23l172 278h473v-20l-293 -281h-352z" />
    <glyph glyph-name="Ecircumflex" unicode="&#xca;" horiz-adv-x="1234" 
d="M586 362h544v-362h-993v1434h979v-363h-530v-178h467v-340h-467v-191zM621 1669l-105 -123h-342l285 301h338l286 -301h-350l-104 123h-8z" />
    <glyph glyph-name="Edieresis" unicode="&#xcb;" horiz-adv-x="1234" 
d="M586 362h544v-362h-993v1434h979v-363h-530v-178h467v-340h-467v-191zM878 1509q-97 0 -150.5 51.5t-53.5 143.5t53 143t150.5 51t151.5 -51t54 -143t-54 -143.5t-151 -51.5zM379 1509q-96 0 -150.5 51.5t-54.5 143.5t54.5 143t150.5 51t150.5 -51t54.5 -143
t-54.5 -143.5t-150.5 -51.5z" />
    <glyph glyph-name="Igrave" unicode="&#xcc;" horiz-adv-x="935" 
d="M850 1110h-158v-786h158v-324h-766v324h160v786h-160v324h766v-324zM711 1546h-353l-292 281v20h473l172 -278v-23z" />
    <glyph glyph-name="Iacute" unicode="&#xcd;" horiz-adv-x="935" 
d="M850 1434v-324h-158v-786h158v-324h-766v324h160v786h-160v324h766zM872 1847v-20l-292 -281h-353v23l172 278h473z" />
    <glyph glyph-name="Icircumflex" unicode="&#xce;" horiz-adv-x="935" 
d="M850 1434v-324h-158v-786h158v-324h-766v324h160v786h-160v324h766zM461 1669l-105 -123h-342l285 301h338l287 -301h-351l-104 123h-8z" />
    <glyph glyph-name="Idieresis" unicode="&#xcf;" horiz-adv-x="935" 
d="M850 1434v-324h-158v-786h158v-324h-766v324h160v786h-160v324h766zM718 1898q97 0 151.5 -51t54.5 -143t-54.5 -143.5t-151.5 -51.5t-150.5 51.5t-53.5 143.5t53.5 143t150.5 51zM424 1704q0 -92 -54.5 -143.5t-150.5 -51.5t-150.5 51.5t-54.5 143.5t54.5 143t150.5 51
t150.5 -51t54.5 -143z" />
    <glyph glyph-name="Eth" unicode="&#xd0;" horiz-adv-x="1523" 
d="M758 412q242 0 241.5 305t-241.5 305h-152v-188h170v-218h-170v-204h152zM758 1434q330 0 522.5 -193.5t192.5 -523.5t-193 -523.5t-522 -193.5h-600v616h-133v218h133v600h600z" />
    <glyph glyph-name="Ntilde" unicode="&#xd1;" horiz-adv-x="1587" 
d="M1450 1434v-1434h-389l-488 694l-16 -4l8 -690h-428v1434h387l490 -691l16 5l-8 686h428zM971 1501q-78 0 -172 64.5t-132 64.5t-60.5 -31.5t-12.5 -82.5l-172 -11q-57 184 18.5 290t204.5 106q78 0 172 -64.5t133 -64.5t60.5 31.5t13.5 82.5l172 10
q57 -182 -19.5 -288.5t-205.5 -106.5z" />
    <glyph glyph-name="Ograve" unicode="&#xd2;" horiz-adv-x="1523" 
d="M761.5 371q108.5 0 172 93t63.5 253t-63.5 253t-172 93t-172 -93t-63.5 -253t63.5 -253t172 -93zM762 -25q-328 0 -519.5 200t-191.5 542t191.5 541.5t519.5 199.5t519.5 -199.5t191.5 -541.5t-191.5 -542t-519.5 -200zM1004 1546h-353l-293 281v20h473l173 -278v-23z
" />
    <glyph glyph-name="Oacute" unicode="&#xd3;" horiz-adv-x="1523" 
d="M761.5 371q108.5 0 172 93t63.5 253t-63.5 253t-172 93t-172 -93t-63.5 -253t63.5 -253t172 -93zM762 -25q-328 0 -519.5 200t-191.5 542t191.5 541.5t519.5 199.5t519.5 -199.5t191.5 -541.5t-191.5 -542t-519.5 -200zM520 1546v23l172 278h473v-20l-293 -281h-352z" />
    <glyph glyph-name="Ocircumflex" unicode="&#xd4;" horiz-adv-x="1523" 
d="M761.5 371q108.5 0 172 93t63.5 253t-63.5 253t-172 93t-172 -93t-63.5 -253t63.5 -253t172 -93zM762 -25q-328 0 -519.5 200t-191.5 542t191.5 541.5t519.5 199.5t519.5 -199.5t191.5 -541.5t-191.5 -542t-519.5 -200zM307 1546l285 301h338l287 -301h-351l-104 123h-8
l-105 -123h-342z" />
    <glyph glyph-name="Otilde" unicode="&#xd5;" horiz-adv-x="1523" 
d="M761.5 371q108.5 0 172 93t63.5 253t-63.5 253t-172 93t-172 -93t-63.5 -253t63.5 -253t172 -93zM762 -25q-328 0 -519.5 200t-191.5 542t191.5 541.5t519.5 199.5t519.5 -199.5t191.5 -541.5t-191.5 -542t-519.5 -200zM930 1501q-78 0 -172 64.5t-132 64.5t-60.5 -31.5
t-12.5 -82.5l-172 -11q-57 184 18.5 290t204.5 106q78 0 172 -64.5t133 -64.5t60.5 31.5t13.5 82.5l172 10q57 -182 -19.5 -288.5t-205.5 -106.5z" />
    <glyph glyph-name="Odieresis" unicode="&#xd6;" horiz-adv-x="1523" 
d="M761.5 371q108.5 0 172 93t63.5 253t-63.5 253t-172 93t-172 -93t-63.5 -253t63.5 -253t172 -93zM762 -25q-328 0 -519.5 200t-191.5 542t191.5 541.5t519.5 199.5t519.5 -199.5t191.5 -541.5t-191.5 -542t-519.5 -200zM1011 1509q-97 0 -150.5 51.5t-53.5 143.5t53 143
t150.5 51t152 -51t54.5 -143t-54.5 -143.5t-151.5 -51.5zM512 1509q-96 0 -150.5 51.5t-54.5 143.5t54.5 143t150.5 51t150.5 -51t54.5 -143t-54.5 -143.5t-150.5 -51.5z" />
    <glyph glyph-name="multiply" unicode="&#xd7;" horiz-adv-x="1024" 
d="M954 895l-239 -240l239 -239l-202 -203l-240 240l-240 -240l-202 203l239 239l-239 240l202 203l240 -240l240 240z" />
    <glyph glyph-name="Oslash" unicode="&#xd8;" horiz-adv-x="1523" 
d="M756 371q115 0 178 93t63 255q0 88 -10 170l-362 -490q68 -28 131 -28zM526 719q0 -86 11 -168l360 487q-68 29 -129 29q-115 0 -178.5 -93t-63.5 -255zM1473 724q0 -347 -191.5 -548t-519.5 -201q-219 0 -383 95l-103 -140h-194v9l170 229q-201 201 -201 547
t191.5 546.5t519.5 200.5q215 0 381 -92l102 137h195v-8l-168 -227q201 -201 201 -548z" />
    <glyph glyph-name="Ugrave" unicode="&#xd9;" horiz-adv-x="1503" 
d="M753 -25q-288 0 -457 170t-169 461v828h448v-828q0 -236 176.5 -235.5t176.5 235.5v828h448v-828q0 -291 -167.5 -461t-455.5 -170zM993 1546h-352l-293 281v20h473l172 -278v-23z" />
    <glyph glyph-name="Uacute" unicode="&#xda;" horiz-adv-x="1503" 
d="M753 -25q-288 0 -457 170t-169 461v828h448v-828q0 -236 176.5 -235.5t176.5 235.5v828h448v-828q0 -291 -167.5 -461t-455.5 -170zM510 1546v23l172 278h473v-20l-293 -281h-352z" />
    <glyph glyph-name="Ucircumflex" unicode="&#xdb;" horiz-adv-x="1503" 
d="M753 -25q-288 0 -457 170t-169 461v828h448v-828q0 -236 176.5 -235.5t176.5 235.5v828h448v-828q0 -291 -167.5 -461t-455.5 -170zM297 1546l285 301h338l286 -301h-350l-104 123h-9l-104 -123h-342z" />
    <glyph glyph-name="Udieresis" unicode="&#xdc;" horiz-adv-x="1503" 
d="M753 -25q-288 0 -457 170t-169 461v828h448v-828q0 -236 176.5 -235.5t176.5 235.5v828h448v-828q0 -291 -167.5 -461t-455.5 -170zM1000 1509q-97 0 -150 51.5t-53 143.5t53 143t150 51t151.5 -51t54.5 -143t-54.5 -143.5t-151.5 -51.5zM502 1509q-96 0 -150.5 51.5
t-54.5 143.5t54.5 143t150.5 51t150.5 -51t54.5 -143t-54.5 -143.5t-150.5 -51.5z" />
    <glyph glyph-name="Yacute" unicode="&#xdd;" horiz-adv-x="1495" 
d="M973 0h-449v496l-532 938h512l248 -496h8l241 496h502l-530 -930v-504zM508 1546v23l172 278h473v-20l-293 -281h-352z" />
    <glyph glyph-name="Thorn" unicode="&#xde;" horiz-adv-x="1382" 
d="M700 541q184 0 184 185t-184 185h-114v-370h114zM719 1284q295 0 468 -152t173 -407q0 -256 -173 -408t-468 -151h-133v-166h-449v1434h449v-150h133z" />
    <glyph glyph-name="germandbls" unicode="&#xdf;" horiz-adv-x="1320" 
d="M878 -23q-186 0 -300 64l98 319q63 -51 137 -51t74 49q0 61 -128 157q-48 36 -88 99q-40 62 -40 142t63 179q64 99 64 143t-32 75t-87 31t-89 -37t-34 -92v-1055h-430v1051q0 241 145 375t403 134t402 -125q145 -126 146 -300q0 -81 -34 -141t-68 -103q-60 -76 -7 -152
q27 -37 65 -73t76 -81q92 -107 91 -261q0 -154 -120 -250q-121 -96 -307 -97z" />
    <glyph glyph-name="agrave" unicode="&#xe0;" horiz-adv-x="1169" 
d="M424 343q0 -89 100 -89q47 0 81 35t34 100v35q-41 14 -94 14t-87 -25.5t-34 -69.5zM762 199q-72 -224 -382 -224q-146 0 -247.5 86t-101.5 243t124 242t314 85q90 0 170 -21v8q0 115 -180 115q-141 0 -273 -71l-112 309q207 102 458.5 102t394 -124t142.5 -359v-201
q0 -63 49 -63h19l22 -316q-80 -27 -172 -26.5t-151.5 48.5t-59.5 148v15zM170 1536h428l174 -379h-287l-315 363v16z" />
    <glyph glyph-name="aacute" unicode="&#xe1;" horiz-adv-x="1169" 
d="M424 343q0 -89 100 -89q47 0 81 35t34 100v35q-41 14 -94 14t-87 -25.5t-34 -69.5zM762 199q-72 -224 -382 -224q-146 0 -247.5 86t-101.5 243t124 242t314 85q90 0 170 -21v8q0 115 -180 115q-141 0 -273 -71l-112 309q207 102 458.5 102t394 -124t142.5 -359v-201
q0 -63 49 -63h19l22 -316q-80 -27 -172 -26.5t-151.5 48.5t-59.5 148v15zM946 1536v-16l-313 -363h-289l174 379h428z" />
    <glyph glyph-name="acircumflex" unicode="&#xe2;" horiz-adv-x="1169" 
d="M424 343q0 -89 100 -89q47 0 81 35t34 100v35q-41 14 -94 14t-87 -25.5t-34 -69.5zM762 199q-72 -224 -382 -224q-146 0 -247.5 86t-101.5 243t124 242t314 85q90 0 170 -21v8q0 115 -180 115q-141 0 -273 -71l-112 309q207 102 458.5 102t394 -124t142.5 -359v-201
q0 -63 49 -63h19l22 -316q-80 -27 -172 -26.5t-151.5 48.5t-59.5 148v15zM559 1350l-96 -193h-332l225 379h418l225 -379h-335l-97 193h-8z" />
    <glyph glyph-name="atilde" unicode="&#xe3;" horiz-adv-x="1169" 
d="M424 343q0 -89 100 -89q47 0 81 35t34 100v35q-41 14 -94 14t-87 -25.5t-34 -69.5zM762 199q-72 -224 -382 -224q-146 0 -247.5 86t-101.5 243t124 242t314 85q90 0 170 -21v8q0 115 -180 115q-141 0 -273 -71l-112 309q207 102 458.5 102t394 -124t142.5 -359v-201
q0 -63 49 -63h19l22 -316q-80 -27 -172 -26.5t-151.5 48.5t-59.5 148v15zM408 1540q78 0 172 -64.5t133 -64.5t60.5 32t12.5 83l172 10q57 -182 -19.5 -288.5t-205.5 -106.5q-78 0 -172 64.5t-132 64.5t-60.5 -32t-12.5 -83l-172 -10q-57 184 19 289.5t205 105.5z" />
    <glyph glyph-name="adieresis" unicode="&#xe4;" horiz-adv-x="1169" 
d="M424 343q0 -89 100 -89q47 0 81 35t34 100v35q-41 14 -94 14t-87 -25.5t-34 -69.5zM762 199q-72 -224 -382 -224q-146 0 -247.5 86t-101.5 243t124 242t314 85q90 0 170 -21v8q0 115 -180 115q-141 0 -273 -71l-112 309q207 102 458.5 102t394 -124t142.5 -359v-201
q0 -63 49 -63h19l22 -316q-80 -27 -172 -26.5t-151.5 48.5t-59.5 148v15zM814 1147q-97 0 -150.5 51t-53.5 143.5t53.5 143.5t150.5 51t151.5 -51t54.5 -143.5t-54.5 -143.5t-151.5 -51zM315.5 1147q-96.5 0 -150.5 51t-54 143.5t54 143.5t150.5 51t150.5 -51t54 -143.5
t-54 -143.5t-150.5 -51z" />
    <glyph glyph-name="aring" unicode="&#xe5;" horiz-adv-x="1169" 
d="M424 343q0 -89 100 -89q47 0 81 35t34 100v35q-41 14 -94 14t-87 -25.5t-34 -69.5zM762 199q-72 -224 -382 -224q-146 0 -247.5 86t-101.5 243t124 242t314 85q90 0 170 -21v8q0 115 -180 115q-141 0 -273 -71l-112 309q207 102 458.5 102t394 -124t142.5 -359v-201
q0 -63 49 -63h19l22 -316q-80 -27 -172 -26.5t-151.5 48.5t-59.5 148v15zM565 1481q-35 0 -59.5 -23.5t-24.5 -58.5t24.5 -58.5t59.5 -23.5t59.5 24.5t24.5 57.5t-24.5 57.5t-59.5 24.5zM565 1135q-125 0 -211 76.5t-86 186.5t86 186.5t211 76.5t210 -76t85 -186.5t-85 -187
t-210 -76.5z" />
    <glyph glyph-name="ae" unicode="&#xe6;" horiz-adv-x="1730" 
d="M525 254q46 0 80 35t34 100v37q-43 12 -95 12t-86 -25.5t-34 -68.5t27.5 -66.5t73.5 -23.5zM1067 621h236q0 176 -118 176t-118 -176zM418 -25q-182 0 -284.5 84t-102.5 244t124 245t314 85q90 0 170 -21v6q0 115 -180 115q-141 0 -273 -71l-112 309q207 102 439.5 102
t336.5 -153h16q111 154 345.5 153.5t359.5 -145t125 -381.5q0 -72 -19 -133h-602q33 -123 228 -123q147 0 258 69l104 -282q-193 -102 -420 -103q-285 0 -405 177h-17q-124 -177 -405 -177z" />
    <glyph glyph-name="ccedilla" unicode="&#xe7;" horiz-adv-x="995" 
d="M668 -55.5q0 -18.5 25.5 -40t55 -38t55 -48t25.5 -74.5q0 -84 -79.5 -131t-196.5 -47t-217 51l80 176q41 -41 93 -41t52 37q0 20 -54 55t-54 73t30 71q-205 37 -324.5 177t-119.5 375.5t163 384t429 148.5q195 0 342 -78l-123 -321q-82 53 -175 53t-144.5 -50t-51.5 -151
q0 -205 205 -204q96 0 190 47l115 -310q-143 -74 -315 -84q-6 -12 -6 -30.5z" />
    <glyph glyph-name="egrave" unicode="&#xe8;" horiz-adv-x="1142" 
d="M475 621h240q0 176 -120 176t-120 -176zM617 -25q-254 0 -416 146.5t-162 402.5t155.5 402.5t405.5 146.5t379 -142.5t129 -383.5q0 -72 -18 -133h-607q37 -123 230 -123q145 0 260 69l104 -282q-206 -103 -460 -103zM199 1536h428l174 -379h-287l-315 363v16z" />
    <glyph glyph-name="eacute" unicode="&#xe9;" horiz-adv-x="1142" 
d="M475 621h240q0 176 -120 176t-120 -176zM617 -25q-254 0 -416 146.5t-162 402.5t155.5 402.5t405.5 146.5t379 -142.5t129 -383.5q0 -72 -18 -133h-607q37 -123 230 -123q145 0 260 69l104 -282q-206 -103 -460 -103zM975 1536v-16l-313 -363h-289l174 379h428z" />
    <glyph glyph-name="ecircumflex" unicode="&#xea;" horiz-adv-x="1142" 
d="M475 621h240q0 176 -120 176t-120 -176zM617 -25q-254 0 -416 146.5t-162 402.5t155.5 402.5t405.5 146.5t379 -142.5t129 -383.5q0 -72 -18 -133h-607q37 -123 230 -123q145 0 260 69l104 -282q-206 -103 -460 -103zM160 1157l225 379h418l225 -379h-336l-96 193h-8
l-96 -193h-332z" />
    <glyph glyph-name="edieresis" unicode="&#xeb;" horiz-adv-x="1142" 
d="M475 621h240q0 176 -120 176t-120 -176zM617 -25q-254 0 -416 146.5t-162 402.5t155.5 402.5t405.5 146.5t379 -142.5t129 -383.5q0 -72 -18 -133h-607q37 -123 230 -123q145 0 260 69l104 -282q-206 -103 -460 -103zM843 1147q-97 0 -150.5 51t-53.5 143.5t53 143.5
t150.5 51t152 -51t54.5 -143.5t-54.5 -143.5t-151.5 -51zM344 1147q-96 0 -150.5 51t-54.5 143.5t54.5 143.5t150.5 51t150.5 -51t54.5 -143.5t-54.5 -143.5t-150.5 -51z" />
    <glyph glyph-name="igrave" unicode="&#xec;" horiz-adv-x="602" 
d="M86 0v1049h430v-1049h-430zM-94 1536h428l174 -379h-287l-315 363v16z" />
    <glyph glyph-name="iacute" unicode="&#xed;" horiz-adv-x="602" 
d="M86 0v1049h430v-1049h-430zM682 1536v-16l-313 -363h-289l174 379h428z" />
    <glyph glyph-name="icircumflex" unicode="&#xee;" horiz-adv-x="602" 
d="M86 0v1049h430v-1049h-430zM-133 1157l225 379h418l225 -379h-336l-96 193h-8l-96 -193h-332z" />
    <glyph glyph-name="idieresis" unicode="&#xef;" horiz-adv-x="602" 
d="M86 0v1049h430v-1049h-430zM550 1147q-97 0 -150.5 51t-53.5 143.5t53.5 143.5t150.5 51t151.5 -51t54.5 -143.5t-54.5 -143.5t-151.5 -51zM51 1147q-96 0 -150.5 51t-54.5 143.5t54.5 143.5t150.5 51t150.5 -51t54.5 -143.5t-54.5 -143.5t-150.5 -51z" />
    <glyph glyph-name="eth" unicode="&#xf0;" horiz-adv-x="1196" 
d="M606 346q57 0 92 45t35 121t-35 122t-92 46t-92 -46t-35 -122t35 -121t92 -45zM1159 616q0 -292 -140 -466q-139 -174 -401 -174t-420 144q-158 146 -159 404q0 217 129 341t315 124q145 0 228 -78l12 4q-31 147 -160 271l-241 -168l-89 119l203 141q-92 51 -205 78
l56 209q215 -41 379 -127l233 161l88 -120l-182 -127q354 -262 354 -736z" />
    <glyph glyph-name="ntilde" unicode="&#xf1;" horiz-adv-x="1234" 
d="M86 0v1049h332l18 -185l17 -4q94 209 331 209q170 0 269.5 -114.5t99.5 -313.5v-641h-430v565q0 111 -90 111q-117 0 -117 -207v-469h-430zM788 1141q-78 0 -172 64.5t-132 64.5t-60.5 -32t-11.5 -83l-172 -10q-57 184 18.5 289.5t204.5 105.5q78 0 172 -64.5t133 -64.5
t60.5 32t13.5 83l172 10q57 -182 -20 -288.5t-206 -106.5z" />
    <glyph glyph-name="ograve" unicode="&#xf2;" horiz-adv-x="1214" 
d="M607 346q60 0 94 48t34 131t-33.5 130t-94 47t-94.5 -47t-34 -130t34 -131t94 -48zM606 -25q-258 0 -412.5 149.5t-154.5 400.5t154.5 399.5t412.5 148.5t413 -148.5t155 -399.5t-155 -400.5t-413 -149.5zM211 1536h428l174 -379h-287l-315 363v16z" />
    <glyph glyph-name="oacute" unicode="&#xf3;" horiz-adv-x="1214" 
d="M607 346q60 0 94 48t34 131t-33.5 130t-94 47t-94.5 -47t-34 -130t34 -131t94 -48zM606 -25q-258 0 -412.5 149.5t-154.5 400.5t154.5 399.5t412.5 148.5t413 -148.5t155 -399.5t-155 -400.5t-413 -149.5zM987 1536v-16l-313 -363h-289l174 379h428z" />
    <glyph glyph-name="ocircumflex" unicode="&#xf4;" horiz-adv-x="1214" 
d="M607 346q60 0 94 48t34 131t-33.5 130t-94 47t-94.5 -47t-34 -130t34 -131t94 -48zM606 -25q-258 0 -412.5 149.5t-154.5 400.5t154.5 399.5t412.5 148.5t413 -148.5t155 -399.5t-155 -400.5t-413 -149.5zM172 1157l225 379h418l225 -379h-335l-97 193h-8l-96 -193h-332z
" />
    <glyph glyph-name="otilde" unicode="&#xf5;" horiz-adv-x="1214" 
d="M607 346q60 0 94 48t34 131t-33.5 130t-94 47t-94.5 -47t-34 -130t34 -131t94 -48zM606 -25q-258 0 -412.5 149.5t-154.5 400.5t154.5 399.5t412.5 148.5t413 -148.5t155 -399.5t-155 -400.5t-413 -149.5zM774 1141q-78 0 -172 64.5t-132 64.5t-60.5 -32t-12.5 -83
l-172 -10q-57 184 18.5 289.5t205.5 105.5q78 0 172 -64.5t132.5 -64.5t60.5 32t13 83l172 10q57 -182 -19.5 -288.5t-205.5 -106.5z" />
    <glyph glyph-name="odieresis" unicode="&#xf6;" horiz-adv-x="1214" 
d="M607 346q60 0 94 48t34 131t-33.5 130t-94 47t-94.5 -47t-34 -130t34 -131t94 -48zM606 -25q-258 0 -412.5 149.5t-154.5 400.5t154.5 399.5t412.5 148.5t413 -148.5t155 -399.5t-155 -400.5t-413 -149.5zM855 1147q-97 0 -150.5 51t-53.5 143.5t53.5 143.5t150.5 51
t151.5 -51t54.5 -143.5t-54.5 -143.5t-151.5 -51zM356.5 1147q-96.5 0 -150.5 51t-54 143.5t54 143.5t150.5 51t150.5 -51t54 -143.5t-54 -143.5t-150.5 -51z" />
    <glyph glyph-name="divide" unicode="&#xf7;" horiz-adv-x="1024" 
d="M512 76q-94 0 -146 51t-52 144t50 143q52 50 148 51q96 0 147 -50q51 -49 51 -143t-52 -145t-146 -51zM63 506v309h898v-309h-898zM512 856q-94 0 -146 51t-52 145t50 143q52 50 148 50t147 -50t51 -143q0 -92 -52 -144t-146 -52z" />
    <glyph glyph-name="oslash" unicode="&#xf8;" horiz-adv-x="1214" 
d="M607 346q60 0 94 48t34 131t-33.5 130t-94 47t-94.5 -47t-34 -130t34 -131t94 -48zM1204 1130v-16l-160 -215q129 -147 129.5 -386t-154.5 -388.5t-413 -149.5q-113 0 -217 33l-67 -90h-312v16l160 218q-131 143 -131 383.5t154.5 389t412.5 148.5q115 0 219 -33l68 90
h311z" />
    <glyph glyph-name="ugrave" unicode="&#xf9;" horiz-adv-x="1234" 
d="M453 -20q-168 0 -269.5 105t-101.5 300v664h430v-564q0 -111 90 -110q117 0 117 188v486h430v-1049h-332l-18 186l-17 4q-93 -210 -329 -210zM221 1536h428l174 -379h-286l-316 363v16z" />
    <glyph glyph-name="uacute" unicode="&#xfa;" horiz-adv-x="1234" 
d="M453 -20q-168 0 -269.5 105t-101.5 300v664h430v-564q0 -111 90 -110q117 0 117 188v486h430v-1049h-332l-18 186l-17 4q-93 -210 -329 -210zM997 1536v-16l-313 -363h-289l174 379h428z" />
    <glyph glyph-name="ucircumflex" unicode="&#xfb;" horiz-adv-x="1234" 
d="M453 -20q-168 0 -269.5 105t-101.5 300v664h430v-564q0 -111 90 -110q117 0 117 188v486h430v-1049h-332l-18 186l-17 4q-93 -210 -329 -210zM182 1157l226 379h417l226 -379h-336l-97 193h-8l-96 -193h-332z" />
    <glyph glyph-name="udieresis" unicode="&#xfc;" horiz-adv-x="1234" 
d="M453 -20q-168 0 -269.5 105t-101.5 300v664h430v-564q0 -111 90 -110q117 0 117 188v486h430v-1049h-332l-18 186l-17 4q-93 -210 -329 -210zM865 1147q-97 0 -150 51t-53 143.5t53 143.5t150 51t151.5 -51t54.5 -143.5t-54.5 -143.5t-151.5 -51zM366.5 1147
q-96.5 0 -150.5 51t-54 143.5t54 143.5t150.5 51t150.5 -51t54 -143.5t-54 -143.5t-150.5 -51z" />
    <glyph glyph-name="yacute" unicode="&#xfd;" horiz-adv-x="1181" 
d="M84 -377v346q242 -43 293 109l-393 971h454l160 -545h8l150 545h442l-340 -891q-123 -322 -299 -443t-475 -92zM971 1536v-16l-314 -363h-288l174 379h428z" />
    <glyph glyph-name="thorn" unicode="&#xfe;" horiz-adv-x="1228" 
d="M639 346q61 0 94 48t33 131t-33 130t-94 47t-95 -47t-34 -130t34 -131t95 -48zM86 -410v1946h430v-567l10 -4q92 109 265 109t293 -147t120 -403t-123 -402t-293 -146t-262 110l-10 -4v-492h-430z" />
    <glyph glyph-name="ydieresis" unicode="&#xff;" horiz-adv-x="1181" 
d="M84 -377v346q242 -43 293 109l-393 971h454l160 -545h8l150 545h442l-340 -891q-123 -322 -299 -443t-475 -92zM839 1147q-97 0 -150.5 51t-53.5 143.5t53 143.5t150.5 51t151.5 -51t54 -143.5t-54 -143.5t-151 -51zM340 1147q-96 0 -150.5 51t-54.5 143.5t54.5 143.5
t150.5 51t150.5 -51t54.5 -143.5t-54.5 -143.5t-150.5 -51z" />
    <glyph glyph-name="Amacron" unicode="&#x100;" horiz-adv-x="1599" 
d="M801 958h-6l-136 -417h275zM1100 0l-60 195h-487l-61 -195h-480l568 1434h458l549 -1434h-487zM1204 1843v-291h-807v291h807z" />
    <glyph glyph-name="amacron" unicode="&#x101;" horiz-adv-x="1169" 
d="M424 343q0 -89 100 -89q47 0 81 35t34 100v35q-41 14 -94 14t-87 -25.5t-34 -69.5zM762 199q-72 -224 -382 -224q-146 0 -247.5 86t-101.5 243t124 242t314 85q90 0 170 -21v8q0 115 -180 115q-141 0 -273 -71l-112 309q207 102 458.5 102t394 -124t142.5 -359v-201
q0 -63 49 -63h19l22 -316q-80 -27 -172 -26.5t-151.5 48.5t-59.5 148v15zM969 1495v-293h-807v293h807z" />
    <glyph glyph-name="Abreve" unicode="&#x102;" horiz-adv-x="1599" 
d="M801 958h-6l-136 -417h275zM1100 0l-60 195h-487l-61 -195h-480l568 1434h458l549 -1434h-487zM800 1497q-169 0 -277.5 98.5t-108.5 251.5h276q0 -45 33 -72.5t83 -27.5t83 27.5t33 72.5h264q0 -154 -108.5 -252t-277.5 -98z" />
    <glyph glyph-name="abreve" unicode="&#x103;" horiz-adv-x="1169" 
d="M424 343q0 -89 100 -89q47 0 81 35t34 100v35q-41 14 -94 14t-87 -25.5t-34 -69.5zM762 199q-72 -224 -382 -224q-146 0 -247.5 86t-101.5 243t124 242t314 85q90 0 170 -21v8q0 115 -180 115q-141 0 -273 -71l-112 309q207 102 458.5 102t394 -124t142.5 -359v-201
q0 -63 49 -63h19l22 -316q-80 -27 -172 -26.5t-151.5 48.5t-59.5 148v15zM564 1137q-175 0 -280.5 110.5t-105.5 294.5h277q0 -63 31.5 -102t83 -39t84 39t32.5 102h264q0 -184 -105.5 -294.5t-280.5 -110.5z" />
    <glyph glyph-name="Aogonek" unicode="&#x104;" horiz-adv-x="1599" 
d="M801 958h-6l-136 -417h275zM1139 -231q0 152 200 231h-239l-60 195h-487l-61 -195h-480l568 1434h458l549 -1434q-133 -78 -133 -164q0 -53 68 -53q43 -1 84 22l59 -172q-109 -66 -244 -65.5t-208.5 53.5t-73.5 148z" />
    <glyph glyph-name="aogonek" unicode="&#x105;" horiz-adv-x="1169" 
d="M424 343q0 -89 100 -89q47 0 81 35t34 100v35q-41 14 -94 14t-87 -25.5t-34 -69.5zM964 -432q-134 0 -209 53t-75 148q0 168 242 249v13q-70 8 -108 49t-38 100v15l-14 4q-37 -115 -137.5 -171.5t-246 -56.5t-246.5 88t-101 245t124 242t314 85q90 0 170 -21v8
q0 115 -180 115q-141 0 -273 -71l-112 309q207 102 458.5 102t394 -124t142.5 -359v-201q0 -63 49 -63h19l22 -316q-66 -25 -115 -73t-49 -101t70 -53q43 0 82 22l59 -172q-108 -65 -242 -65z" />
    <glyph glyph-name="Cacute" unicode="&#x106;" horiz-adv-x="1259" 
d="M776 -25q-332 0 -528.5 200t-196.5 541t197.5 541.5t535.5 200.5q250 0 461 -96l-147 -385q-141 80 -295 80q-277 0 -277 -340t269 -340q168 0 323 98l152 -379q-228 -121 -494 -121zM508 1546v23l172 278h473v-20l-293 -281h-352z" />
    <glyph glyph-name="cacute" unicode="&#x107;" horiz-adv-x="995" 
d="M631 -25q-268 0 -430 145.5t-162 400.5t163 403.5t429 148.5q195 0 342 -78l-123 -321q-82 53 -175 53t-144.5 -50t-51.5 -151q0 -205 205 -204q96 0 190 47l115 -310q-161 -84 -358 -84zM954 1536v-16l-313 -363h-289l174 379h428z" />
    <glyph glyph-name="Ccircumflex" unicode="&#x108;" horiz-adv-x="1259" 
d="M776 -25q-332 0 -528.5 200t-196.5 541t197.5 541.5t535.5 200.5q250 0 461 -96l-147 -385q-141 80 -295 80q-277 0 -277 -340t269 -340q168 0 323 98l152 -379q-228 -121 -494 -121zM295 1546l285 301h338l286 -301h-350l-104 123h-9l-104 -123h-342z" />
    <glyph glyph-name="ccircumflex" unicode="&#x109;" horiz-adv-x="995" 
d="M631 -25q-268 0 -430 145.5t-162 400.5t163 403.5t429 148.5q195 0 342 -78l-123 -321q-82 53 -175 53t-144.5 -50t-51.5 -151q0 -205 205 -204q96 0 190 47l115 -310q-161 -84 -358 -84zM139 1157l226 379h417l226 -379h-336l-97 193h-8l-96 -193h-332z" />
    <glyph glyph-name="Cdotaccent" unicode="&#x10a;" horiz-adv-x="1259" 
d="M776 -25q-332 0 -528.5 200t-196.5 541t197.5 541.5t535.5 200.5q250 0 461 -96l-147 -385q-141 80 -295 80q-277 0 -277 -340t269 -340q168 0 323 98l152 -379q-228 -121 -494 -121zM749.5 1495q-118.5 0 -184 55.5t-65.5 155.5t65.5 155.5t184 55.5t185 -55.5
t66.5 -155.5t-66.5 -155.5t-185 -55.5z" />
    <glyph glyph-name="cdotaccent" unicode="&#x10b;" horiz-adv-x="995" 
d="M631 -25q-268 0 -430 145.5t-162 400.5t163 403.5t429 148.5q195 0 342 -78l-123 -321q-82 53 -175 53t-144.5 -50t-51.5 -151q0 -205 205 -204q96 0 190 47l115 -310q-161 -84 -358 -84zM573.5 1128q-118.5 0 -184 55.5t-65.5 154.5t65.5 154.5t184 55.5t185 -55
t66.5 -155t-66.5 -155t-185 -55z" />
    <glyph glyph-name="Ccaron" unicode="&#x10c;" horiz-adv-x="1259" 
d="M776 -25q-332 0 -528.5 200t-196.5 541t197.5 541.5t535.5 200.5q250 0 461 -96l-147 -385q-141 80 -295 80q-277 0 -277 -340t269 -340q168 0 323 98l152 -379q-228 -121 -494 -121zM1202 1847l-284 -301h-338l-287 301h350l105 -123h8l104 123h342z" />
    <glyph glyph-name="ccaron" unicode="&#x10d;" horiz-adv-x="995" 
d="M631 -25q-268 0 -430 145.5t-162 400.5t163 403.5t429 148.5q195 0 342 -78l-123 -321q-82 53 -175 53t-144.5 -50t-51.5 -151q0 -205 205 -204q96 0 190 47l115 -310q-161 -84 -358 -84zM1006 1538l-226 -379h-418l-225 379h336l96 -192h9l96 192h332z" />
    <glyph glyph-name="Dcaron" unicode="&#x10e;" horiz-adv-x="1501" 
d="M586 412h151q242 0 242 305t-242 305h-151v-610zM137 0v1434h600q330 0 522.5 -193.5t192.5 -523.5t-192.5 -523.5t-522.5 -193.5h-600zM1196 1847l-285 -301h-338l-286 301h350l104 -123h9l104 123h342z" />
    <glyph glyph-name="dcaron" unicode="&#x10f;" horiz-adv-x="1245" 
d="M607 346q60 0 94 48t34 131t-33.5 130t-94 47t-94.5 -47t-34 -130t34 -131t94 -48zM1227 1120l16 416h365l-135 -416h-246zM491.5 -25q-198.5 0 -325.5 145.5t-127 403.5t124 402.5t298 144.5t260 -100l10 4v561h430v-1536h-336l-16 125l-14 4q-105 -154 -303.5 -154z
" />
    <glyph glyph-name="Dcroat" unicode="&#x110;" horiz-adv-x="1523" 
d="M758 412q242 0 241.5 305t-241.5 305h-152v-188h170v-218h-170v-204h152zM758 1434q330 0 522.5 -193.5t192.5 -523.5t-193 -523.5t-522 -193.5h-600v616h-133v218h133v600h600z" />
    <glyph glyph-name="dcroat" unicode="&#x111;" horiz-adv-x="1245" 
d="M607 346q60 0 94 48t34 131t-33.5 130t-94 47t-94.5 -47t-34 -130t34 -131t94 -48zM1286 1380v-192h-125v-1188h-336l-16 125l-14 4q-104 -154 -303 -154t-326 145.5t-127 403.5t124 402.5t298 144.5t260 -100l10 4v213h-315v192h315v156h430v-156h125z" />
    <glyph glyph-name="Emacron" unicode="&#x112;" horiz-adv-x="1234" 
d="M586 362h544v-362h-993v1434h979v-363h-530v-178h467v-340h-467v-191zM1032 1843v-291h-807v291h807z" />
    <glyph glyph-name="emacron" unicode="&#x113;" horiz-adv-x="1142" 
d="M475 621h240q0 176 -120 176t-120 -176zM617 -25q-254 0 -416 146.5t-162 402.5t155.5 402.5t405.5 146.5t379 -142.5t129 -383.5q0 -72 -18 -133h-607q37 -123 230 -123q145 0 260 69l104 -282q-206 -103 -460 -103zM190 1202v293h807v-293h-807z" />
    <glyph glyph-name="Edotaccent" unicode="&#x116;" horiz-adv-x="1234" 
d="M586 362h544v-362h-993v1434h979v-363h-530v-178h467v-340h-467v-191zM629 1495q-119 0 -184.5 55.5t-65.5 155.5t65.5 155.5t184.5 55.5t185.5 -55.5t66.5 -155.5t-66.5 -155.5t-185.5 -55.5z" />
    <glyph glyph-name="edotaccent" unicode="&#x117;" horiz-adv-x="1142" 
d="M475 621h240q0 176 -120 176t-120 -176zM617 -25q-254 0 -416 146.5t-162 402.5t155.5 402.5t405.5 146.5t379 -142.5t129 -383.5q0 -72 -18 -133h-607q37 -123 230 -123q145 0 260 69l104 -282q-206 -103 -460 -103zM594 1128q-119 0 -184.5 55.5t-65.5 154.5
t65.5 154.5t184.5 55.5t185.5 -55t66.5 -154.5t-66.5 -155t-185.5 -55.5z" />
    <glyph glyph-name="Eogonek" unicode="&#x118;" horiz-adv-x="1241" 
d="M682 -231q0 152 197 231h-742v1434h979v-363h-530v-178h467v-340h-467v-191h544v-354q-133 -82 -133 -172q0 -53 68 -53q45 -1 84 22l59 -172q-109 -66 -243.5 -65.5t-208.5 53.5t-74 148z" />
    <glyph glyph-name="eogonek" unicode="&#x119;" horiz-adv-x="1142" 
d="M475 621h240q0 176 -120 176t-120 -176zM884 -432q-134 0 -209 53t-75 148q0 129 182 215l-6 16q-59 -25 -151 -25q-258 -1 -422 147t-164 403t156 401q155 146 405 147q250 0 379 -142t129 -384q0 -72 -18 -133h-607q37 -123 230 -123q145 0 260 69l104 -282
q-71 -47 -117 -113t-46 -124t71 -58q43 0 82 22l59 -172q-108 -65 -242 -65z" />
    <glyph glyph-name="Ecaron" unicode="&#x11a;" horiz-adv-x="1234" 
d="M586 362h544v-362h-993v1434h979v-363h-530v-178h467v-340h-467v-191zM797 1546h-338l-287 301h350l105 -123h8l104 123h342z" />
    <glyph glyph-name="ecaron" unicode="&#x11b;" horiz-adv-x="1142" 
d="M475 621h240q0 176 -120 176t-120 -176zM617 -25q-254 0 -416 146.5t-162 402.5t155.5 402.5t405.5 146.5t379 -142.5t129 -383.5q0 -72 -18 -133h-607q37 -123 230 -123q145 0 260 69l104 -282q-206 -103 -460 -103zM1026 1538l-225 -379h-418l-225 379h336l96 -192h8
l96 192h332z" />
    <glyph glyph-name="Gcircumflex" unicode="&#x11c;" horiz-adv-x="1458" 
d="M776 -25q-332 0 -528.5 201t-196.5 542t212 540.5t577 199.5q303 0 532 -119l-143 -378q-178 96 -358.5 96t-262.5 -88t-82 -262q0 -367 281 -367q82 0 158 29v184h-201v301h608v-739q-264 -140 -596 -140zM322 1546l284 301h338l287 -301h-350l-105 123h-8l-104 -123
h-342z" />
    <glyph glyph-name="gcircumflex" unicode="&#x11d;" horiz-adv-x="1243" 
d="M605 346q60 0 95 48t35 131t-34.5 130t-95 47t-94.5 -47t-34 -130t34 -131t94 -48zM508 -434q-240 0 -440 100l112 309q143 -86 280.5 -86t203 47.5t65.5 131.5v36l-12 7q-82 -111 -260 -111t-298 140.5t-120 392t126 396t338 144.5t298 -172l10 4l14 144h334v-918
q0 -274 -169 -419.5t-482 -145.5zM207 1157l225 379h418l225 -379h-336l-96 193h-8l-96 -193h-332z" />
    <glyph glyph-name="Gbreve" unicode="&#x11e;" horiz-adv-x="1458" 
d="M776 -25q-332 0 -528.5 201t-196.5 542t212 540.5t577 199.5q303 0 532 -119l-143 -378q-178 96 -358.5 96t-262.5 -88t-82 -262q0 -367 281 -367q82 0 158 29v184h-201v301h608v-739q-264 -140 -596 -140zM775 1497q-169 0 -277.5 98.5t-108.5 251.5h277
q0 -45 32.5 -72.5t82.5 -27.5t83 27.5t33 72.5h264q0 -154 -108.5 -252t-277.5 -98z" />
    <glyph glyph-name="gbreve" unicode="&#x11f;" horiz-adv-x="1243" 
d="M605 346q60 0 95 48t35 131t-34.5 130t-95 47t-94.5 -47t-34 -130t34 -131t94 -48zM508 -434q-240 0 -440 100l112 309q143 -86 280.5 -86t203 47.5t65.5 131.5v36l-12 7q-82 -111 -260 -111t-298 140.5t-120 392t126 396t338 144.5t298 -172l10 4l14 144h334v-918
q0 -274 -169 -419.5t-482 -145.5zM640 1137q-175 0 -280.5 110.5t-105.5 294.5h276q0 -63 32 -102t83 -39t84 39t33 102h264q0 -184 -105.5 -294.5t-280.5 -110.5z" />
    <glyph glyph-name="Gdotaccent" unicode="&#x120;" horiz-adv-x="1458" 
d="M776 -25q-332 0 -528.5 201t-196.5 542t212 540.5t577 199.5q303 0 532 -119l-143 -378q-178 96 -358.5 96t-262.5 -88t-82 -262q0 -367 281 -367q82 0 158 29v184h-201v301h608v-739q-264 -140 -596 -140zM776 1495q-119 0 -184.5 55.5t-65.5 155.5t65.5 155.5
t184.5 55.5t185.5 -55.5t66.5 -155.5t-66.5 -155.5t-185.5 -55.5z" />
    <glyph glyph-name="gdotaccent" unicode="&#x121;" horiz-adv-x="1243" 
d="M605 346q60 0 95 48t35 131t-34.5 130t-95 47t-94.5 -47t-34 -130t34 -131t94 -48zM508 -434q-240 0 -440 100l112 309q143 -86 280.5 -86t203 47.5t65.5 131.5v36l-12 7q-82 -111 -260 -111t-298 140.5t-120 392t126 396t338 144.5t298 -172l10 4l14 144h334v-918
q0 -274 -169 -419.5t-482 -145.5zM641 1128q-119 0 -184.5 55.5t-65.5 154.5t65.5 154.5t184.5 55.5t185.5 -55t66.5 -154.5t-66.5 -155t-185.5 -55.5z" />
    <glyph glyph-name="Gcommaaccent" unicode="&#x122;" horiz-adv-x="1458" 
d="M537 -408l63 338h440l-198 -338h-305zM776 -25q-332 0 -528.5 201t-196.5 542t212 540.5t577 199.5q303 0 532 -119l-143 -378q-178 96 -358.5 96t-262.5 -88t-82 -262q0 -367 281 -367q82 0 158 29v184h-201v301h608v-739q-264 -140 -596 -140z" />
    <glyph glyph-name="gcommaaccent" unicode="&#x123;" horiz-adv-x="1243" 
d="M605 346q60 0 95 48t35 131t-34.5 130t-95 47t-94.5 -47t-34 -130t34 -131t94 -48zM508 -434q-240 0 -440 100l112 309q143 -86 280.5 -86t203 47.5t65.5 131.5v36l-12 7q-82 -111 -260 -111t-298 140.5t-120 392t126 396t338 144.5t298 -172l10 4l14 144h334v-918
q0 -274 -169 -419.5t-482 -145.5zM383 1149l207 393h305l-74 -393h-438z" />
    <glyph glyph-name="Hbar" unicode="&#x126;" horiz-adv-x="1587" 
d="M1001 930v127h-415v-127h415zM1593 1309v-252h-143v-1057h-449v518h-415v-518h-449v1057h-145v252h145v125h449v-125h415v125h449v-125h143z" />
    <glyph glyph-name="hbar" unicode="&#x127;" horiz-adv-x="1234" 
d="M785 1069q167 0 267.5 -115.5t100.5 -312.5v-641h-430v565q0 111 -90 111q-117 0 -117 -207v-469h-430v1188h-125v192h125v156h430v-156h297v-192h-297v-248l16 -4q86 133 253 133z" />
    <glyph glyph-name="Itilde" unicode="&#x128;" horiz-adv-x="935" 
d="M850 1434v-324h-158v-786h158v-324h-766v324h160v786h-160v324h766zM311 1901q78 0 172.5 -64.5t133 -64.5t60 31.5t13.5 82.5l172 10q57 -182 -19.5 -288.5t-205.5 -106.5q-78 0 -172 64.5t-132 64.5t-60.5 -31.5t-12.5 -82.5l-172 -11q-57 184 18.5 290t204.5 106z" />
    <glyph glyph-name="itilde" unicode="&#x129;" horiz-adv-x="602" 
d="M86 0v1049h430v-1049h-430zM469 1141q-78 0 -172 64.5t-132 64.5t-60.5 -32t-12.5 -83l-172 -10q-57 184 18.5 289.5t204.5 105.5q78 0 172.5 -64.5t132.5 -64.5t60 32t14 83l172 10q57 -182 -19.5 -288.5t-205.5 -106.5z" />
    <glyph glyph-name="Imacron" unicode="&#x12a;" horiz-adv-x="935" 
d="M850 1434v-324h-158v-786h158v-324h-766v324h160v786h-160v324h766zM66 1843h806v-291h-806v291z" />
    <glyph glyph-name="imacron" unicode="&#x12b;" horiz-adv-x="602" 
d="M86 0v1049h430v-1049h-430zM-14 1202v293h630v-293h-630z" />
    <glyph glyph-name="Iogonek" unicode="&#x12e;" horiz-adv-x="935" 
d="M850 1110h-158v-786h158v-324h-195q-133 -78 -133 -164q0 -53 68 -53q45 0 84 22l59 -172q-109 -65 -244 -65t-208.5 53t-73.5 148q0 152 196 231h-319v324h160v786h-160v324h766v-324z" />
    <glyph glyph-name="iogonek" unicode="&#x12f;" horiz-adv-x="602" 
d="M351 -432q-134 0 -208 53t-73 148q0 152 196 231h-180v1049h430v-1049q-57 -33 -94 -78t-37 -86q0 -53 68 -53q43 0 82 22l61 -172q-111 -65 -245 -65zM301 1126q-119 0 -185 56t-67 156q0 98 67 154q68 56 186 56t184 -55t67 -155q-1 -100 -67 -156t-185 -56z" />
    <glyph glyph-name="Idotaccent" unicode="&#x130;" horiz-adv-x="935" 
d="M850 1110h-158v-786h158v-324h-766v324h160v786h-160v324h766v-324zM469 1495q-119 0 -184.5 55.5t-65.5 155.5t65.5 155.5t184.5 55.5t185.5 -55.5t66.5 -155.5t-66.5 -155.5t-185.5 -55.5z" />
    <glyph glyph-name="dotlessi" unicode="&#x131;" horiz-adv-x="602" 
d="M86 0v1049h430v-1049h-430z" />
    <glyph glyph-name="IJ" unicode="&#x132;" horiz-adv-x="1972" 
d="M1397 1434h448v-887q0 -272 -156.5 -421t-410.5 -149q-184 0 -352 76l94 404q109 -68 227 -68q150 0 150 164v881zM850 1434v-324h-158v-786h158v-324h-766v324h160v786h-160v324h766z" />
    <glyph glyph-name="ij" unicode="&#x133;" horiz-adv-x="1206" 
d="M690 184v865h430v-852q0 -252 -116.5 -399.5t-360.5 -223.5l-133 324q96 55 138 119.5t42 166.5zM86 0v1049h430v-1049h-430zM903 1128q-119 0 -184.5 55.5t-65.5 154.5t65.5 154.5t184.5 55.5t185.5 -55t66.5 -154.5t-66.5 -155t-185.5 -55.5zM301 1128
q-119 0 -184.5 55.5t-65.5 154.5t65.5 154.5t184.5 55.5t185.5 -55t66.5 -154.5t-66.5 -155t-185.5 -55.5z" />
    <glyph glyph-name="Kcommaaccent" unicode="&#x136;" horiz-adv-x="1429" 
d="M487 -408l64 338h440l-198 -338h-306zM137 0v1434h449v-609l14 -4l346 613h496l4 -19l-438 -692l479 -703l-4 -20h-514l-369 596l-14 -4v-592h-449z" />
    <glyph glyph-name="kcommaaccent" unicode="&#x137;" horiz-adv-x="1236" 
d="M391 -408l64 338h440l-199 -338h-305zM86 0v1536h430v-877l16 -4l224 394h483l4 -17l-321 -477l354 -535l-4 -20h-506l-234 438l-16 -4v-434h-430z" />
    <glyph glyph-name="Lacute" unicode="&#x139;" horiz-adv-x="1181" 
d="M137 0v1434h449v-1022h522v-412h-971zM152 1546v23l172 278h473v-20l-293 -281h-352z" />
    <glyph glyph-name="lacute" unicode="&#x13a;" horiz-adv-x="653" 
d="M421.5 -25q-143.5 0 -239.5 73t-96 224v1264h430v-1155q0 -63 76 -64q20 0 39 7l20 -306q-86 -43 -229.5 -43zM59 1608v22l172 279h474v-21l-293 -280h-353z" />
    <glyph glyph-name="Lcommaaccent" unicode="&#x13b;" horiz-adv-x="1181" 
d="M362 -408l64 338h440l-198 -338h-306zM137 0v1434h449v-1022h522v-412h-971z" />
    <glyph glyph-name="lcommaaccent" unicode="&#x13c;" horiz-adv-x="653" 
d="M121 -408l63 338h441l-199 -338h-305zM421.5 -25q-143.5 0 -239.5 73t-96 224v1264h430v-1155q0 -63 76 -64q20 0 39 7l20 -306q-86 -43 -229.5 -43z" />
    <glyph glyph-name="Lcaron" unicode="&#x13d;" horiz-adv-x="1181" 
d="M137 0v1434h449v-1022h522v-412h-971zM709 1120l16 416h365l-136 -416h-245z" />
    <glyph glyph-name="lcaron" unicode="&#x13e;" horiz-adv-x="653" 
d="M584 1120l16 416h365l-136 -416h-245zM421.5 -25q-143.5 0 -239.5 73t-96 224v1264h430v-1155q0 -63 76 -64q20 0 39 7l20 -306q-86 -43 -229.5 -43z" />
    <glyph glyph-name="Ldot" unicode="&#x13f;" horiz-adv-x="1181" 
d="M939 649q-112 0 -174.5 61.5t-62.5 173.5t62.5 174t174.5 62t173.5 -62.5t61.5 -174t-61.5 -173t-173.5 -61.5zM137 0v1434h449v-1022h522v-412h-971z" />
    <glyph glyph-name="ldot" unicode="&#x140;" horiz-adv-x="995" 
d="M794 569q-99 0 -154.5 55.5t-55.5 154.5t55 155.5t154.5 56.5t155 -56t55.5 -155.5t-55.5 -155t-154.5 -55.5zM421.5 -25q-143.5 0 -239.5 73t-96 224v1264h430v-1155q0 -63 76 -64q20 0 39 7l20 -306q-86 -43 -229.5 -43z" />
    <glyph glyph-name="Lslash" unicode="&#x141;" horiz-adv-x="1181" 
d="M586 412h522v-412h-971v487l-110 -75h-7v274l117 80v668h449v-447l258 176h6v-272l-264 -180v-299z" />
    <glyph glyph-name="lslash" unicode="&#x142;" horiz-adv-x="653" 
d="M516 381q0 -63 76 -64q20 0 39 7l20 -306q-86 -43 -229.5 -43t-239.5 73t-96 224v287l-86 -59h-6v254l92 61v721h430v-496l135 95h6v-254l-141 -97v-403z" />
    <glyph glyph-name="Nacute" unicode="&#x143;" horiz-adv-x="1587" 
d="M1450 1434v-1434h-389l-488 694l-16 -4l8 -690h-428v1434h387l490 -691l16 5l-8 686h428zM561 1546v23l172 278h473v-20l-293 -281h-352z" />
    <glyph glyph-name="nacute" unicode="&#x144;" horiz-adv-x="1234" 
d="M86 0v1049h332l18 -185l17 -4q94 209 331 209q170 0 269.5 -114.5t99.5 -313.5v-641h-430v565q0 111 -90 111q-117 0 -117 -207v-469h-430zM1001 1536v-16l-313 -363h-289l174 379h428z" />
    <glyph glyph-name="Ncommaaccent" unicode="&#x145;" horiz-adv-x="1587" 
d="M545 -408l63 338h441l-199 -338h-305zM1450 1434v-1434h-389l-488 694l-16 -4l8 -690h-428v1434h387l490 -691l16 5l-8 686h428z" />
    <glyph glyph-name="ncommaaccent" unicode="&#x146;" horiz-adv-x="1234" 
d="M373 -408l63 338h441l-199 -338h-305zM86 0v1049h332l18 -185l17 -4q94 209 331 209q170 0 269.5 -114.5t99.5 -313.5v-641h-430v565q0 111 -90 111q-117 0 -117 -207v-469h-430z" />
    <glyph glyph-name="Ncaron" unicode="&#x147;" horiz-adv-x="1587" 
d="M1450 1434v-1434h-389l-488 694l-16 -4l8 -690h-428v1434h387l490 -691l16 5l-8 686h428zM1255 1847l-284 -301h-338l-287 301h350l105 -123h8l104 123h342z" />
    <glyph glyph-name="ncaron" unicode="&#x148;" horiz-adv-x="1234" 
d="M86 0v1049h332l18 -185l17 -4q94 209 331 209q170 0 269.5 -114.5t99.5 -313.5v-641h-430v565q0 111 -90 111q-117 0 -117 -207v-469h-430zM1053 1538l-226 -379h-417l-226 379h336l96 -192h9l96 192h332z" />
    <glyph glyph-name="napostrophe" unicode="&#x149;" horiz-adv-x="1275" 
d="M125 0v1049h332l18 -185l17 -4q94 209 331 209q170 0 269.5 -114.5t99.5 -313.5v-641h-430v565q0 111 -90 111q-117 0 -117 -207v-469h-430zM16 1137l68 452h438l-229 -452h-277z" />
    <glyph glyph-name="Eng" unicode="&#x14a;" horiz-adv-x="1587" 
d="M137 0v1434h387l490 -689l16 5l-8 684h428v-1237q0 -258 -125 -412t-387 -211l-123 330q90 24 140 70t51 106l-433 608l-16 -4l8 -684h-428z" />
    <glyph glyph-name="eng" unicode="&#x14b;" horiz-adv-x="1234" 
d="M723 184v381q0 111 -90 111q-117 0 -117 -207v-469h-430v1049h332l18 -185l17 -4q94 209 331 209q170 0 270 -115t99 -313v-444q1 -255 -115 -401t-360 -222l-133 324q96 56 137 120t41 166z" />
    <glyph glyph-name="Omacron" unicode="&#x14c;" horiz-adv-x="1523" 
d="M761.5 371q108.5 0 172 93t63.5 253t-63.5 253t-172 93t-172 -93t-63.5 -253t63.5 -253t172 -93zM762 -25q-328 0 -519.5 200t-191.5 542t191.5 541.5t519.5 199.5t519.5 -199.5t191.5 -541.5t-191.5 -542t-519.5 -200zM358 1552v291h807v-291h-807z" />
    <glyph glyph-name="omacron" unicode="&#x14d;" horiz-adv-x="1214" 
d="M607 346q60 0 94 48t34 131t-33.5 130t-94 47t-94.5 -47t-34 -130t34 -131t94 -48zM606 -25q-258 0 -412.5 149.5t-154.5 400.5t154.5 399.5t412.5 148.5t413 -148.5t155 -399.5t-155 -400.5t-413 -149.5zM203 1202v293h807v-293h-807z" />
    <glyph glyph-name="Ohungarumlaut" unicode="&#x150;" horiz-adv-x="1523" 
d="M761.5 371q108.5 0 172 93t63.5 253t-63.5 253t-172 93t-172 -93t-63.5 -253t63.5 -253t172 -93zM762 -25q-328 0 -519.5 200t-191.5 542t191.5 541.5t519.5 199.5t519.5 -199.5t191.5 -541.5t-191.5 -542t-519.5 -200zM1264 1847v-16l-158 -291h-287l58 307h387z
M819 1847v-16l-157 -291h-289l59 307h387z" />
    <glyph glyph-name="ohungarumlaut" unicode="&#x151;" horiz-adv-x="1214" 
d="M607 346q60 0 94 48t34 131t-33.5 130t-94 47t-94.5 -47t-34 -130t34 -131t94 -48zM606 -25q-258 0 -412.5 149.5t-154.5 400.5t154.5 399.5t412.5 148.5t413 -148.5t155 -399.5t-155 -400.5t-413 -149.5zM1122 1536v-16l-172 -363h-286l71 379h387zM678 1536v-16
l-172 -363h-289l74 379h387z" />
    <glyph glyph-name="OE" unicode="&#x152;" horiz-adv-x="2078" 
d="M760 369q108 0 172 94q63 94 63 254t-63 254t-171 94t-171 -94q-64 -94 -64 -254t64 -254q62 -94 170 -94zM1430 362h544v-362h-960v86l-15 4q-119 -113 -317 -113q-270 0 -451 204q-180 204 -180 536q0 331 180 535t451 204q199 0 317 -113l15 5v86h946v-363h-530v-178
h468v-340h-468v-191z" />
    <glyph glyph-name="oe" unicode="&#x153;" horiz-adv-x="1835" 
d="M606.5 346q59.5 0 93 48t33.5 131t-33.5 130t-93 47t-93.5 -47t-34 -130t34 -131t93.5 -48zM1171 621h236q0 176 -118 176t-118 -176zM585 -25q-247 0 -396.5 150.5t-149.5 399.5t148.5 398.5t396.5 149.5t360 -166h14q53 80 149.5 123t213.5 43q227 0 353 -144.5
t126 -381.5q0 -72 -18 -133h-604q37 -123 227 -123q150 0 260 69l104 -282q-197 -102 -419 -103q-270 0 -389 168h-17q-112 -168 -359 -168z" />
    <glyph glyph-name="Racute" unicode="&#x154;" horiz-adv-x="1445" 
d="M586 1061v-320h139q184 0 184 160t-184 160h-139zM586 410v-410h-449v1434h588q299 0 475 -138.5t176 -371.5q0 -141 -65.5 -250t-186.5 -174l316 -500h-514l-224 410h-116zM471 1546v23l172 278h473v-20l-293 -281h-352z" />
    <glyph glyph-name="racute" unicode="&#x155;" horiz-adv-x="872" 
d="M86 0v1049h330l18 -185l17 -4q57 117 167.5 168t251.5 37v-403q-166 20 -260 -42.5t-94 -195.5v-424h-430zM868 1536v-16l-313 -363h-289l174 379h428z" />
    <glyph glyph-name="Rcommaaccent" unicode="&#x156;" horiz-adv-x="1445" 
d="M514 -408l64 338h440l-199 -338h-305zM725 1061h-139v-320h139q184 0 184 160t-184 160zM586 410v-410h-449v1434h588q299 0 475 -138.5t176 -371.5q0 -141 -65.5 -250t-186.5 -174l316 -500h-514l-224 410h-116z" />
    <glyph glyph-name="rcommaaccent" unicode="&#x157;" horiz-adv-x="872" 
d="M53 -408l64 338h440l-199 -338h-305zM86 0v1049h330l18 -185l17 -4q57 117 167.5 168t251.5 37v-403q-166 20 -260 -42.5t-94 -195.5v-424h-430z" />
    <glyph glyph-name="Rcaron" unicode="&#x158;" horiz-adv-x="1445" 
d="M586 1061v-320h139q184 0 184 160t-184 160h-139zM586 410v-410h-449v1434h588q299 0 475 -138.5t176 -371.5q0 -141 -65.5 -250t-186.5 -174l316 -500h-514l-224 410h-116zM881 1546h-338l-287 301h350l105 -123h8l104 123h342z" />
    <glyph glyph-name="rcaron" unicode="&#x159;" horiz-adv-x="872" 
d="M86 0v1049h330l18 -185l17 -4q57 117 167.5 168t251.5 37v-403q-166 20 -260 -42.5t-94 -195.5v-424h-430zM920 1538l-226 -379h-418l-225 379h336l96 -192h9l96 192h332z" />
    <glyph glyph-name="Sacute" unicode="&#x15a;" horiz-adv-x="1183" 
d="M528.5 -25q-274.5 0 -483.5 88l82 388q188 -94 391 -95q154 0 154 80q0 31 -27 53.5t-54.5 31.5t-86.5 26q-211 55 -323.5 154.5t-112.5 289.5q0 223 162.5 345t451.5 122q229 0 430 -92l-145 -375q-147 88 -290.5 88t-144.5 -75q0 -43 43 -64.5t142 -46.5
q205 -51 313.5 -145.5t108.5 -288.5q0 -240 -168 -362t-442.5 -122zM338 1546v23l172 278h473v-20l-293 -281h-352z" />
    <glyph glyph-name="sacute" unicode="&#x15b;" horiz-adv-x="954" 
d="M425 -23q-226 0 -392 70l59 318q156 -70 330 -70q72 0 72 37q0 20 -18.5 29.5t-69.5 21.5q-172 39 -268.5 114.5t-96.5 228.5t127 250t344 97t393 -80l-114 -313q-121 76 -271 76q-74 0 -74 -36t97 -54q178 -37 277.5 -113t99.5 -213q0 -174 -134.5 -268.5t-360.5 -94.5z
M846 1536v-16l-314 -363h-288l174 379h428z" />
    <glyph glyph-name="Scedilla" unicode="&#x15e;" horiz-adv-x="1183" 
d="M1139 458q0 -196 -114 -312.5t-318 -153.5q-35 -58 27 -98q40 -26 81 -60.5t41 -89.5q0 -84 -80 -131t-196.5 -47t-217.5 51l80 176q41 -41 93 -41t53 37q0 20 -54.5 55t-54.5 70t21 61q-252 4 -455 88l82 388q188 -94 391 -95q154 0 154 80q0 31 -27 53.5t-54.5 31.5
t-86.5 26q-211 55 -323.5 154.5t-112.5 289.5q0 223 162.5 345t451.5 122q229 0 430 -92l-145 -375q-147 88 -290.5 88t-144.5 -75q0 -43 43 -64.5t142 -46.5q205 -51 313.5 -145t108.5 -290z" />
    <glyph glyph-name="scedilla" unicode="&#x15f;" horiz-adv-x="954" 
d="M920 336q0 -141 -92.5 -230.5t-258.5 -115.5q-12 -20 -12 -42t25.5 -43.5t55.5 -38t55.5 -48t25.5 -74.5q0 -84 -80 -131t-197 -47t-217 51l80 176q41 -41 93 -41t53 37q0 20 -54.5 55t-54.5 69t23 67q-188 6 -332 67l59 318q156 -70 330 -70q72 0 72 37q0 20 -18.5 29.5
t-69.5 21.5q-172 39 -268.5 114.5t-96.5 228.5t127 250t344 97t393 -80l-114 -313q-121 76 -271 76q-74 0 -74 -36t97 -54q178 -37 277.5 -113t99.5 -217z" />
    <glyph glyph-name="Scaron" unicode="&#x160;" horiz-adv-x="1183" 
d="M528.5 -25q-274.5 0 -483.5 88l82 388q188 -94 391 -95q154 0 154 80q0 31 -27 53.5t-54.5 31.5t-86.5 26q-211 55 -323.5 154.5t-112.5 289.5q0 223 162.5 345t451.5 122q229 0 430 -92l-145 -375q-147 88 -290.5 88t-144.5 -75q0 -43 43 -64.5t142 -46.5
q205 -51 313.5 -145.5t108.5 -288.5q0 -240 -168 -362t-442.5 -122zM1032 1847l-284 -301h-338l-287 301h350l105 -123h8l104 123h342z" />
    <glyph glyph-name="scaron" unicode="&#x161;" horiz-adv-x="954" 
d="M425 -23q-226 0 -392 70l59 318q156 -70 330 -70q72 0 72 37q0 20 -18.5 29.5t-69.5 21.5q-172 39 -268.5 114.5t-96.5 228.5t127 250t344 97t393 -80l-114 -313q-121 76 -271 76q-74 0 -74 -36t97 -54q178 -37 277.5 -113t99.5 -213q0 -174 -134.5 -268.5t-360.5 -94.5z
M897 1538l-225 -379h-418l-225 379h336l96 -192h8l96 192h332z" />
    <glyph glyph-name="uni0162" unicode="&#x162;" horiz-adv-x="1300" 
d="M874 0h-120q-45 -64 21 -106q40 -26 81 -60.5t41 -89.5q0 -84 -80 -131t-196.5 -47t-217.5 51l80 176q41 -41 93 -41t53 37q0 20 -54.5 55t-54.5 75t43 81h-137v1022h-403v412h1255v-412h-404v-1022z" />
    <glyph glyph-name="uni0163" unicode="&#x163;" horiz-adv-x="907" 
d="M610 -57.5q0 -16.5 26 -38t55.5 -38t55 -48t25.5 -74.5q0 -84 -80 -131t-196.5 -47t-216.5 51l79 176q41 -41 93.5 -41t52.5 37q0 20 -54.5 55t-54.5 75t43 83q-131 45 -200.5 158.5t-69.5 277.5v281h-166v330h166l61 276h369v-276h254v-330h-254v-256q0 -117 107 -117
q55 0 96 23l94 -318q-119 -72 -281 -76q-4 -16 -4 -32.5z" />
    <glyph glyph-name="Tcaron" unicode="&#x164;" horiz-adv-x="1300" 
d="M1278 1434v-412h-404v-1022h-448v1022h-403v412h1255zM819 1546h-338l-286 301h350l104 -123h8l105 123h342z" />
    <glyph glyph-name="tcaron" unicode="&#x165;" horiz-adv-x="907" 
d="M705 346q55 0 96 23l94 -318q-123 -76 -289 -76q-207 0 -322.5 125t-115.5 338v281h-166v330h166l61 276h369v-276h254v-330h-254v-256q1 -117 107 -117zM682 1536h365l-136 -416h-245z" />
    <glyph glyph-name="Tbar" unicode="&#x166;" horiz-adv-x="1300" 
d="M1278 1022h-404v-236h279v-290h-279v-496h-448v496h-279v290h279v236h-403v412h1255v-412z" />
    <glyph glyph-name="tbar" unicode="&#x167;" horiz-adv-x="927" 
d="M627 -25q-207 0 -323 125t-116 338v11h-165v192h165v78h-165v330h165l62 276h368v-276h254v-330h-254v-78h254v-192h-254q6 -102 107 -103q55 0 96 23l94 -318q-123 -76 -288 -76z" />
    <glyph glyph-name="Utilde" unicode="&#x168;" horiz-adv-x="1503" 
d="M753 -25q-288 0 -457 170t-169 461v828h448v-828q0 -236 176.5 -235.5t176.5 235.5v828h448v-828q0 -291 -167.5 -461t-455.5 -170zM920 1501q-78 0 -172.5 64.5t-132 64.5t-60.5 -31.5t-12 -82.5l-172 -11q-57 184 18.5 290t204.5 106q78 0 172 -64.5t133 -64.5
t60.5 31.5t13.5 82.5l172 10q57 -182 -19.5 -288.5t-205.5 -106.5z" />
    <glyph glyph-name="utilde" unicode="&#x169;" horiz-adv-x="1234" 
d="M453 -20q-168 0 -269.5 105t-101.5 300v664h430v-564q0 -111 90 -110q117 0 117 188v486h430v-1049h-332l-18 186l-17 4q-93 -210 -329 -210zM784 1141q-78 0 -172 64.5t-132 64.5t-60.5 -32t-11.5 -83l-172 -10q-57 184 18.5 289.5t204.5 105.5q78 0 172 -64.5
t133 -64.5t60.5 32t13.5 83l172 10q57 -182 -20 -288.5t-206 -106.5z" />
    <glyph glyph-name="Umacron" unicode="&#x16a;" horiz-adv-x="1503" 
d="M753 -25q-288 0 -457 170t-169 461v828h448v-828q0 -236 176.5 -235.5t176.5 235.5v828h448v-828q0 -291 -167.5 -461t-455.5 -170zM348 1552v291h807v-291h-807z" />
    <glyph glyph-name="umacron" unicode="&#x16b;" horiz-adv-x="1234" 
d="M453 -20q-168 0 -269.5 105t-101.5 300v664h430v-564q0 -111 90 -110q117 0 117 188v486h430v-1049h-332l-18 186l-17 4q-93 -210 -329 -210zM213 1202v293h807v-293h-807z" />
    <glyph glyph-name="Uring" unicode="&#x16e;" horiz-adv-x="1503" 
d="M753 -25q-288 0 -457 170t-169 461v828h448v-828q0 -236 176.5 -235.5t176.5 235.5v828h448v-828q0 -291 -167.5 -461t-455.5 -170zM751 1659q34 0 58.5 24.5t24.5 57.5t-25 57.5t-58.5 24.5t-57 -24.5t-23.5 -57.5t23.5 -57.5t57.5 -24.5zM751.5 1483
q-120.5 0 -203.5 74.5t-83 183t83 183.5t203.5 75t202.5 -75t82 -183.5t-82 -183t-202.5 -74.5z" />
    <glyph glyph-name="uring" unicode="&#x16f;" horiz-adv-x="1234" 
d="M453 -20q-168 0 -269.5 105t-101.5 300v664h430v-564q0 -111 90 -110q117 0 117 188v486h430v-1049h-332l-18 186l-17 4q-93 -210 -329 -210zM616.5 1317q34.5 0 59 24.5t24.5 57.5t-24.5 57.5t-59 24.5t-59.5 -23.5t-25 -58.5t25 -58.5t59.5 -23.5zM616.5 1135
q-124.5 0 -211 76.5t-86.5 186.5t86.5 186.5t211 76.5t209.5 -76t85 -186.5t-85 -187t-209.5 -76.5z" />
    <glyph glyph-name="Uhungarumlaut" unicode="&#x170;" horiz-adv-x="1503" 
d="M753 -25q-288 0 -457 170t-169 461v828h448v-828q0 -236 176.5 -235.5t176.5 235.5v828h448v-828q0 -291 -167.5 -461t-455.5 -170zM1253 1847v-16l-157 -291h-287l57 307h387zM809 1847v-16l-158 -291h-289l60 307h387z" />
    <glyph glyph-name="uhungarumlaut" unicode="&#x171;" horiz-adv-x="1234" 
d="M453 -20q-168 0 -269.5 105t-101.5 300v664h430v-564q0 -111 90 -110q117 0 117 188v486h430v-1049h-332l-18 186l-17 4q-93 -210 -329 -210zM1133 1536v-16l-172 -363h-287l71 379h388zM688 1536v-16l-172 -363h-289l74 379h387z" />
    <glyph glyph-name="Uogonek" unicode="&#x172;" horiz-adv-x="1503" 
d="M928 1434h448v-828q0 -237 -102 -367t-263 -222t-161 -181q0 -53 68 -53q43 0 81 22l62 -172q-111 -66 -245 -65.5t-207.5 53.5t-73.5 148q0 154 178 206q-270 12 -428 181.5t-158 449.5v828h448v-828q0 -236 176.5 -235.5t176.5 235.5v828z" />
    <glyph glyph-name="uogonek" unicode="&#x173;" horiz-adv-x="1234" 
d="M702 -231q0 150 195 231h-80l-18 186l-17 4q-94 -211 -329 -210q-168 0 -269.5 105t-101.5 300v664h430v-564q0 -111 90 -110q117 0 117 188v486h430v-1049q-57 -35 -94 -79t-37 -85q0 -53 67 -53q43 -1 82 22l62 -172q-111 -66 -245 -65.5t-208 53.5t-74 148z" />
    <glyph glyph-name="Wcircumflex" unicode="&#x174;" horiz-adv-x="2273" 
d="M412 0l-402 1434h496l213 -926h8l203 926h438l197 -926h8l203 926h487l-399 -1434h-545l-178 764h-8l-191 -764h-530zM690 1546l285 301h338l286 -301h-350l-104 123h-8l-105 -123h-342z" />
    <glyph glyph-name="wcircumflex" unicode="&#x175;" horiz-adv-x="1710" 
d="M309 0l-325 1049h438l117 -576h8l141 576h350l140 -576h8l98 576h440l-325 -1049h-410l-137 494h-8l-137 -494h-398zM430 1157l225 379h418l225 -379h-335l-97 193h-8l-96 -193h-332z" />
    <glyph glyph-name="Ycircumflex" unicode="&#x176;" horiz-adv-x="1495" 
d="M973 0h-449v496l-532 938h512l248 -496h8l241 496h502l-530 -930v-504zM741 1669l-104 -123h-342l285 301h338l286 -301h-350l-104 123h-9z" />
    <glyph glyph-name="ycircumflex" unicode="&#x177;" horiz-adv-x="1181" 
d="M84 -377v346q242 -43 293 109l-393 971h454l160 -545h8l150 545h442l-340 -891q-123 -322 -299 -443t-475 -92zM156 1157l225 379h418l225 -379h-336l-96 193h-8l-97 -193h-331z" />
    <glyph glyph-name="Ydieresis" unicode="&#x178;" horiz-adv-x="1495" 
d="M973 0h-449v496l-532 938h512l248 -496h8l241 496h502l-530 -930v-504zM998 1509q-97 0 -150 51.5t-53 143.5t53 143t150 51t151.5 -51t54.5 -143t-54.5 -143.5t-151.5 -51.5zM499.5 1509q-96.5 0 -150.5 51.5t-54 143.5t54 143t150.5 51t151 -51t54.5 -143t-54.5 -143.5
t-151 -51.5z" />
    <glyph glyph-name="Zacute" unicode="&#x179;" horiz-adv-x="1359" 
d="M82 0v283l600 749l-4 17h-576v385h1174v-283l-598 -750l4 -16h604v-385h-1204zM440 1546v23l172 278h473v-20l-292 -281h-353z" />
    <glyph glyph-name="zacute" unicode="&#x17a;" horiz-adv-x="1085" 
d="M74 0v260l399 432l-4 17h-379v340h914v-271l-400 -422l4 -16h404v-340h-938zM922 1536v-16l-314 -363h-289l175 379h428z" />
    <glyph glyph-name="Zdotaccent" unicode="&#x17b;" horiz-adv-x="1359" 
d="M82 0v283l600 749l-4 17h-576v385h1174v-283l-598 -750l4 -16h604v-385h-1204zM682 1495q-119 0 -184.5 55.5t-65.5 155.5t65.5 155.5t184.5 55.5t185.5 -55.5t66.5 -155.5t-66.5 -155.5t-185.5 -55.5z" />
    <glyph glyph-name="zdotaccent" unicode="&#x17c;" horiz-adv-x="1085" 
d="M74 0v260l399 432l-4 17h-379v340h914v-271l-400 -422l4 -16h404v-340h-938zM540.5 1128q-118.5 0 -184 55.5t-65.5 154.5t65.5 154.5t184 55.5t185.5 -55t67 -155t-67 -155t-185.5 -55z" />
    <glyph glyph-name="Zcaron" unicode="&#x17d;" horiz-adv-x="1359" 
d="M82 0v283l600 749l-4 17h-576v385h1174v-283l-598 -750l4 -16h604v-385h-1204zM1135 1847l-285 -301h-338l-287 301h350l105 -123h8l105 123h342z" />
    <glyph glyph-name="zcaron" unicode="&#x17e;" horiz-adv-x="1085" 
d="M74 0v260l399 432l-4 17h-379v340h914v-271l-400 -422l4 -16h404v-340h-938zM973 1538l-225 -379h-418l-226 379h336l97 -192h8l96 192h332z" />
    <glyph glyph-name="florin" unicode="&#x192;" horiz-adv-x="1128" 
d="M836 1020q-135 0 -148 -123l-8 -66h248v-331h-285l-39 -355q-24 -225 -178 -349t-344 -124t-307 74l159 338q54 -39 110 -39t92 32t42 89l37 334h-133v331h168l10 87q25 227 177 350q153 123 378 123q160 0 275 -52l-140 -346q-53 27 -114 27z" />
    <glyph glyph-name="AEacute" unicode="&#x1fc;" horiz-adv-x="2058" 
d="M963 571v490h-50l-221 -490h271zM1409 362h545v-362h-991v225h-426l-101 -225h-508l736 1434h1275v-363h-530v-178h469v-340h-469v-191zM936 1546v23l172 278h473v-20l-293 -281h-352z" />
    <glyph glyph-name="aeacute" unicode="&#x1fd;" horiz-adv-x="1730" 
d="M525 254q46 0 80 35t34 100v37q-43 12 -95 12t-86 -25.5t-34 -68.5t27.5 -66.5t73.5 -23.5zM1067 621h236q0 176 -118 176t-118 -176zM418 -25q-182 0 -284.5 84t-102.5 244t124 245t314 85q90 0 170 -21v6q0 115 -180 115q-141 0 -273 -71l-112 309q207 102 439.5 102
t336.5 -153h16q111 154 345.5 153.5t359.5 -145t125 -381.5q0 -72 -19 -133h-602q33 -123 228 -123q147 0 258 69l104 -282q-193 -102 -420 -103q-285 0 -405 177h-17q-124 -177 -405 -177zM1262 1536v-16l-314 -363h-289l175 379h428z" />
    <glyph glyph-name="Oslashacute" unicode="&#x1fe;" horiz-adv-x="1523" 
d="M756 371q115 0 178 93t63 255q0 88 -10 170l-362 -490q68 -28 131 -28zM526 719q0 -86 11 -168l360 487q-68 29 -129 29q-115 0 -178.5 -93t-63.5 -255zM1473 724q0 -347 -191.5 -548t-519.5 -201q-219 0 -383 95l-103 -140h-194v9l170 229q-201 201 -201 547
t191.5 546.5t519.5 200.5q215 0 381 -92l102 137h195v-8l-168 -227q201 -201 201 -548zM520 1546v23l172 278h473v-20l-293 -281h-352z" />
    <glyph glyph-name="oslashacute" unicode="&#x1ff;" horiz-adv-x="1214" 
d="M607 346q60 0 94 48t34 131t-33.5 130t-94 47t-94.5 -47t-34 -130t34 -131t94 -48zM1204 1130v-16l-160 -215q129 -147 129.5 -386t-154.5 -388.5t-413 -149.5q-113 0 -217 33l-67 -90h-312v16l160 218q-131 143 -131 383.5t154.5 389t412.5 148.5q115 0 219 -33l68 90
h311zM987 1536v-16l-313 -363h-289l174 379h428z" />
    <glyph glyph-name="Scommaaccent" unicode="&#x218;" horiz-adv-x="1183" 
d="M342 -408l64 338h440l-199 -338h-305zM528.5 -25q-274.5 0 -483.5 88l82 388q188 -94 391 -95q154 0 154 80q0 31 -27 53.5t-54.5 31.5t-86.5 26q-211 55 -323.5 154.5t-112.5 289.5q0 223 162.5 345t451.5 122q229 0 430 -92l-145 -375q-147 88 -290.5 88t-144.5 -75
q0 -43 43 -64.5t142 -46.5q205 -51 313.5 -145.5t108.5 -288.5q0 -240 -168 -362t-442.5 -122z" />
    <glyph glyph-name="scommaaccent" unicode="&#x219;" horiz-adv-x="954" 
d="M205 -408l63 338h441l-199 -338h-305zM425 -23q-226 0 -392 70l59 318q156 -70 330 -70q72 0 72 37q0 20 -18.5 29.5t-69.5 21.5q-172 39 -268.5 114.5t-96.5 228.5t127 250t344 97t393 -80l-114 -313q-121 76 -271 76q-74 0 -74 -36t97 -54q178 -37 277.5 -113
t99.5 -213q0 -174 -134.5 -268.5t-360.5 -94.5z" />
    <glyph glyph-name="uni021A" unicode="&#x21a;" horiz-adv-x="1300" 
d="M383 -408l63 338h441l-199 -338h-305zM23 1434h1255v-412h-404v-1022h-448v1022h-403v412z" />
    <glyph glyph-name="uni021B" unicode="&#x21b;" horiz-adv-x="907" 
d="M258 -408l64 338h440l-199 -338h-305zM606 -25q-207 0 -322.5 125t-115.5 338v281h-166v330h166l61 276h369v-276h254v-330h-254v-256q0 -117 107 -117q55 0 96 23l94 -318q-123 -76 -289 -76z" />
    <glyph glyph-name="uni0237" unicode="&#x237;" horiz-adv-x="604" 
d="M88 184v865h430v-852q0 -252 -116.5 -399.5t-360.5 -223.5l-133 324q96 55 138 119.5t42 166.5z" />
    <glyph glyph-name="circumflex" unicode="&#x2c6;" horiz-adv-x="866" 
d="M0 1157l225 379h418l225 -379h-336l-96 193h-8l-96 -193h-332z" />
    <glyph glyph-name="caron" unicode="&#x2c7;" horiz-adv-x="866" 
d="M866 1538l-225 -379h-418l-225 379h336l96 -192h8l97 192h331z" />
    <glyph glyph-name="breve" unicode="&#x2d8;" horiz-adv-x="825" 
d="M413 1137q-175 0 -280.5 110.5t-105.5 294.5h276q0 -63 32 -102t83 -39t84 39t33 102h264q0 -184 -105.5 -294.5t-280.5 -110.5z" />
    <glyph glyph-name="dotaccent" unicode="&#x2d9;" horiz-adv-x="608" 
d="M303 1128q-119 0 -184.5 55.5t-65.5 154.5t65.5 154.5t184.5 55.5t185.5 -55t66.5 -155t-66.5 -155t-185.5 -55z" />
    <glyph glyph-name="ring" unicode="&#x2da;" horiz-adv-x="686" 
d="M344 1317q35 0 59.5 24.5t24.5 57.5t-24.5 57.5t-59.5 24.5t-59.5 -23.5t-24.5 -58.5t24.5 -58.5t59.5 -23.5zM344 1135q-125 0 -211 76.5t-86 186.5t86 186.5t211 76.5t210 -76t85 -186.5t-85 -187t-210 -76.5z" />
    <glyph glyph-name="ogonek" unicode="&#x2db;" horiz-adv-x="577" 
d="M313 -432q-135 0 -209 53t-73 148q0 207 360 278l88 -47q-133 -78 -133 -164q0 -53 68 -53q45 0 84 22l59 -172q-109 -65 -244 -65z" />
    <glyph glyph-name="tilde" unicode="&#x2dc;" horiz-adv-x="1075" 
d="M700 1141q-78 0 -172 64.5t-132 64.5t-60.5 -32t-11.5 -83l-172 -10q-57 184 18.5 289.5t204.5 105.5q78 0 172 -64.5t133 -64.5t60.5 32t13.5 83l172 10q57 -182 -20 -288.5t-206 -106.5z" />
    <glyph glyph-name="hungarumlaut" unicode="&#x2dd;" horiz-adv-x="1114" 
d="M1010 1536v-16l-172 -363h-287l72 379h387zM565 1536v-16l-172 -363h-289l74 379h387z" />
    <glyph glyph-name="gravecomb" unicode="&#x300;" 
d="M-631 1536h428l174 -379h-286l-316 363v16z" />
    <glyph glyph-name="acutecomb" unicode="&#x301;" 
d="M-49 1536v-16l-313 -363h-289l174 379h428z" />
    <glyph glyph-name="uni0302" unicode="&#x302;" 
d="M-866 1157l225 379h418l225 -379h-336l-96 193h-8l-97 -193h-331z" />
    <glyph glyph-name="tildecomb" unicode="&#x303;" 
d="M-375 1141q-78 0 -172 64.5t-132 64.5t-60.5 -32t-12.5 -83l-172 -10q-57 184 19 289.5t205 105.5q78 0 172 -64.5t133 -64.5t60.5 32t12.5 83l172 10q57 -182 -19.5 -288.5t-205.5 -106.5z" />
    <glyph glyph-name="uni0304" unicode="&#x304;" 
d="M-831 1202v293h806v-293h-806z" />
    <glyph glyph-name="uni0306" unicode="&#x306;" 
d="M-413 1137q-175 0 -280.5 110.5t-105.5 294.5h277q0 -63 31.5 -102t83 -39t84 39t32.5 102h264q0 -184 -105.5 -294.5t-280.5 -110.5z" />
    <glyph glyph-name="uni0307" unicode="&#x307;" 
d="M-305 1128q-119 0 -184.5 55.5t-65.5 154.5t65.5 154.5t184.5 55.5t185.5 -55t66.5 -155t-66.5 -155t-185.5 -55z" />
    <glyph glyph-name="uni0308" unicode="&#x308;" 
d="M-349 1147q-97 0 -150.5 51t-53.5 143.5t53.5 143.5t150.5 51t151.5 -51t54.5 -143.5t-54.5 -143.5t-151.5 -51zM-848 1147q-96 0 -150.5 51t-54.5 143.5t54.5 143.5t150.5 51t150.5 -51t54.5 -143.5t-54.5 -143.5t-150.5 -51z" />
    <glyph glyph-name="uni030A" unicode="&#x30a;" 
d="M-342 1317q35 0 59.5 24.5t24.5 57.5t-24.5 57.5t-59.5 24.5t-59.5 -23.5t-24.5 -58.5t24.5 -58.5t59.5 -23.5zM-342 1135q-125 0 -211 76.5t-86 186.5t86 186.5t211 76.5t210 -76t85 -186.5t-85 -187t-210 -76.5z" />
    <glyph glyph-name="uni030B" unicode="&#x30b;" 
d="M-104 1536v-16l-172 -363h-287l71 379h388zM-549 1536v-16l-172 -363h-289l74 379h387z" />
    <glyph glyph-name="uni030C" unicode="&#x30c;" 
d="M0 1538l-225 -379h-418l-225 379h336l96 -192h8l96 192h332z" />
    <glyph glyph-name="uni0312" unicode="&#x312;" 
d="M-563 1149l207 393h305l-74 -393h-438z" />
    <glyph glyph-name="uni0326" unicode="&#x326;" 
d="M-526 -408l63 338h440l-198 -338h-305z" />
    <glyph glyph-name="uni0327" unicode="&#x327;" 
d="M-413 -248q52 0 53 37q0 20 -54.5 55t-54.5 77t49 85h191q-25 -27 -25 -53.5t25.5 -48t55.5 -38t55.5 -48t25.5 -74.5q0 -84 -80 -131t-197 -47t-217 51l80 176q41 -41 93 -41z" />
    <glyph glyph-name="uni0328" unicode="&#x328;" 
d="M-264 -432q-135 0 -209 53t-74 148q0 207 361 278l88 -47q-133 -78 -133 -164q0 -53 67 -53q45 0 84 22l60 -172q-109 -65 -244 -65z" />
    <glyph glyph-name="uni0335" unicode="&#x335;" 
d="M-872 449v192h849v-192h-849z" />
    <glyph glyph-name="uni0336" unicode="&#x336;" 
d="M-1591 418v252h1601v-252h-1601z" />
    <glyph glyph-name="uni0337" unicode="&#x337;" 
d="M-698 500v254l690 397h6v-252l-690 -399h-6z" />
    <glyph glyph-name="uni0338" unicode="&#x338;" 
d="M-1251 0v8l1056 1426h195v-9l-1057 -1425h-194z" />
    <glyph glyph-name="uni0394" unicode="&#x394;" horiz-adv-x="1630" 
d="M553 379h526l-262 565h-8zM102 0v338l525 1096h379l522 -1096v-338h-1426z" />
    <glyph glyph-name="uni03A9" unicode="&#x3a9;" horiz-adv-x="1523" 
d="M63 0v412h193l2 16q-92 59 -145 171t-54 241q0 256 195 437t508 181t507 -181t193 -437q0 -129 -53 -241t-145 -171l4 -16h190v-412h-633v373q172 135 172 381q0 145 -63 227t-172 82t-172 -82t-64 -227q0 -244 170 -381v-373h-633z" />
    <glyph glyph-name="uni03BC" unicode="&#x3bc;" horiz-adv-x="1234" 
d="M82 -410v1459h430v-564q0 -111 90 -110q117 0 117 188v486h430v-1049h-332l-18 186l-17 4q-80 -199 -202 -198q-39 0 -68 22l-8 -2v-422h-422z" />
    <glyph glyph-name="pi" unicode="&#x3c0;" horiz-adv-x="1386" 
d="M1102 -25q-358 0 -359 334v410h-141v-719h-430v719h-149v330h1300v-330h-149v-338q0 -63 69 -64q22 1 47 7l37 -306q-92 -43 -225 -43z" />
    <glyph glyph-name="Wgrave" unicode="&#x1e80;" horiz-adv-x="2273" 
d="M412 0l-402 1434h496l213 -926h8l203 926h438l197 -926h8l203 926h487l-399 -1434h-545l-178 764h-8l-191 -764h-530zM1386 1546h-352l-293 281v20h473l172 -278v-23z" />
    <glyph glyph-name="wgrave" unicode="&#x1e81;" horiz-adv-x="1710" 
d="M309 0l-325 1049h438l117 -576h8l141 576h350l140 -576h8l98 576h440l-325 -1049h-410l-137 494h-8l-137 -494h-398zM469 1536h428l174 -379h-287l-315 363v16z" />
    <glyph glyph-name="Wacute" unicode="&#x1e82;" horiz-adv-x="2273" 
d="M412 0l-402 1434h496l213 -926h8l203 926h438l197 -926h8l203 926h487l-399 -1434h-545l-178 764h-8l-191 -764h-530zM903 1546v23l172 278h473v-20l-293 -281h-352z" />
    <glyph glyph-name="wacute" unicode="&#x1e83;" horiz-adv-x="1710" 
d="M309 0l-325 1049h438l117 -576h8l141 576h350l140 -576h8l98 576h440l-325 -1049h-410l-137 494h-8l-137 -494h-398zM1245 1536v-16l-313 -363h-289l174 379h428z" />
    <glyph glyph-name="Wdieresis" unicode="&#x1e84;" horiz-adv-x="2273" 
d="M412 0l-402 1434h496l213 -926h8l203 926h438l197 -926h8l203 926h487l-399 -1434h-545l-178 764h-8l-191 -764h-530zM1394 1509q-97 0 -150.5 51.5t-53.5 143.5t53 143t150.5 51t151.5 -51t54 -143t-54 -143.5t-151 -51.5zM895 1509q-96 0 -150.5 51.5t-54.5 143.5
t54.5 143t150.5 51t150.5 -51t54.5 -143t-54.5 -143.5t-150.5 -51.5z" />
    <glyph glyph-name="wdieresis" unicode="&#x1e85;" horiz-adv-x="1710" 
d="M309 0l-325 1049h438l117 -576h8l141 576h350l140 -576h8l98 576h440l-325 -1049h-410l-137 494h-8l-137 -494h-398zM1113 1147q-97 0 -150.5 51t-53.5 143.5t53.5 143.5t150.5 51t151.5 -51t54.5 -143.5t-54.5 -143.5t-151.5 -51zM614.5 1147q-96.5 0 -150.5 51
t-54 143.5t54 143.5t150.5 51t150.5 -51t54 -143.5t-54 -143.5t-150.5 -51z" />
    <glyph glyph-name="uni1E9E" unicode="&#x1e9e;" horiz-adv-x="1595" 
d="M1047 -23q-224 0 -390 82l84 371q121 -80 246 -80t125 82q0 145 -383 266l-4 17l248 317q-65 51 -169 51q-104 1 -161 -71t-57 -185v-827h-449v827q0 299 181 465t513 166q446 0 674 -301v-8l-241 -309q143 -82 216 -180t72 -240q0 -203 -140 -323t-365 -120z" />
    <glyph glyph-name="uni1EBC" unicode="&#x1ebc;" horiz-adv-x="1234" 
d="M586 362h544v-362h-993v1434h979v-363h-530v-178h467v-340h-467v-191zM471 1901q78 0 172 -64.5t133 -64.5t60.5 31.5t13.5 82.5l172 10q57 -182 -19.5 -288.5t-205.5 -106.5q-78 0 -172.5 64.5t-132 64.5t-60 -31.5t-12.5 -82.5l-172 -11q-57 184 18.5 290t204.5 106z
" />
    <glyph glyph-name="uni1EBD" unicode="&#x1ebd;" horiz-adv-x="1142" 
d="M475 621h240q0 176 -120 176t-120 -176zM617 -25q-254 0 -416 146.5t-162 402.5t155.5 402.5t405.5 146.5t379 -142.5t129 -383.5q0 -72 -18 -133h-607q37 -123 230 -123q145 0 260 69l104 -282q-206 -103 -460 -103zM762 1141q-78 0 -172 64.5t-132 64.5t-60.5 -32
t-12.5 -83l-172 -10q-57 184 18.5 289.5t204.5 105.5q78 0 172 -64.5t133 -64.5t60.5 32t13.5 83l172 10q57 -182 -19.5 -288.5t-205.5 -106.5z" />
    <glyph glyph-name="Ygrave" unicode="&#x1ef2;" horiz-adv-x="1495" 
d="M973 0h-449v496l-532 938h512l248 -496h8l241 496h502l-530 -930v-504zM991 1546h-352l-293 281v20h473l172 -278v-23z" />
    <glyph glyph-name="ygrave" unicode="&#x1ef3;" horiz-adv-x="1181" 
d="M84 -377v346q242 -43 293 109l-393 971h454l160 -545h8l150 545h442l-340 -891q-123 -322 -299 -443t-475 -92zM195 1536h428l174 -379h-287l-315 363v16z" />
    <glyph glyph-name="uni1EF8" unicode="&#x1ef8;" horiz-adv-x="1495" 
d="M973 0h-449v496l-532 938h512l248 -496h8l241 496h502l-530 -930v-504zM592 1901q78 0 172 -64.5t133 -64.5t60.5 31.5t13.5 82.5l172 10q57 -182 -19.5 -288.5t-205.5 -106.5q-78 0 -172.5 64.5t-132 64.5t-60 -31.5t-12.5 -82.5l-172 -11q-57 184 18.5 290t204.5 106z
" />
    <glyph glyph-name="uni1EF9" unicode="&#x1ef9;" horiz-adv-x="1181" 
d="M84 -377v346q242 -43 293 109l-393 971h454l160 -545h8l150 545h442l-340 -891q-123 -322 -299 -443t-475 -92zM758 1141q-78 0 -172 64.5t-132 64.5t-60.5 -32t-12.5 -83l-172 -10q-57 184 18.5 289.5t204.5 105.5q78 0 172 -64.5t133 -64.5t60.5 32t13.5 83l172 10
q57 -182 -19.5 -288.5t-205.5 -106.5z" />
    <glyph glyph-name="uni2002" unicode="&#x2002;" horiz-adv-x="1024" 
 />
    <glyph glyph-name="uni2003" unicode="&#x2003;" horiz-adv-x="2048" 
 />
    <glyph glyph-name="uni2009" unicode="&#x2009;" horiz-adv-x="92" 
 />
    <glyph glyph-name="endash" unicode="&#x2013;" horiz-adv-x="1024" 
d="M61 449v387h902v-387h-902z" />
    <glyph glyph-name="emdash" unicode="&#x2014;" horiz-adv-x="2048" 
d="M61 449v387h1926v-387h-1926z" />
    <glyph glyph-name="quoteleft" unicode="&#x2018;" horiz-adv-x="530" 
d="M498 1434l-76 -678h-438l247 678h267z" />
    <glyph glyph-name="quoteright" unicode="&#x2019;" horiz-adv-x="530" 
d="M33 756l76 678h438l-248 -678h-266z" />
    <glyph glyph-name="quotesinglbase" unicode="&#x201a;" horiz-adv-x="548" 
d="M33 -264l76 678h438l-248 -678h-266z" />
    <glyph glyph-name="quotedblleft" unicode="&#x201c;" horiz-adv-x="995" 
d="M963 1434l-76 -678h-438l247 678h267zM498 1434l-76 -678h-438l247 678h267z" />
    <glyph glyph-name="quotedblright" unicode="&#x201d;" horiz-adv-x="995" 
d="M498 756l75 678h439l-248 -678h-266zM33 756l76 678h438l-248 -678h-266z" />
    <glyph glyph-name="quotedblbase" unicode="&#x201e;" horiz-adv-x="1015" 
d="M498 -264l75 678h439l-248 -678h-266zM33 -264l76 678h438l-248 -678h-266z" />
    <glyph glyph-name="dagger" unicode="&#x2020;" horiz-adv-x="1038" 
d="M987 1130v-370h-268v-965h-400v965h-268v370h268v304h400v-304h268z" />
    <glyph glyph-name="daggerdbl" unicode="&#x2021;" horiz-adv-x="1038" 
d="M987 760h-268v-291h268v-371h-268v-303h-400v303h-268v371h268v291h-268v370h268v304h400v-304h268v-370z" />
    <glyph glyph-name="bullet" unicode="&#x2022;" horiz-adv-x="999" 
d="M500 303q-158 0 -259 101q-101 102 -101 260t100 259q102 101 260 101t259 -101t101 -259t-101 -260t-259 -101z" />
    <glyph glyph-name="ellipsis" unicode="&#x2026;" horiz-adv-x="1863" 
d="M1567 -23q-123 0 -192 69t-68 192q1 124 69 192t191 68t191 -69t69 -191q-1 -122 -69 -192q-68 -69 -191 -69zM932 -23q-123 0 -192 69t-68 192q0 124 68 192t192 68t192 -69t68 -191t-68 -192q-68 -69 -192 -69zM297 -23q-123 0 -192 69t-68 192q1 124 69 192t191 68
t191 -69t69 -191q-1 -122 -69 -192q-68 -69 -191 -69z" />
    <glyph glyph-name="perthousand" unicode="&#x2030;" horiz-adv-x="2715" 
d="M2276 498q-42 0 -70 -37t-27 -91q-1 -54 27 -92t70 -38t69 36t27 92t-27 93t-69 37zM1399 240q41 0 69 38t27 92q0 54 -28 91q-29 37 -69 37t-68 -37t-28 -91t28 -92t69 -38zM2275 -25q-182 0 -299 111t-116 283q0 173 116 283t299 110q182 0 299 -111t117 -283
t-117 -282q-117 -111 -299 -111zM1399 -25q-182 0 -299 111t-117 283q0 173 117 283t299 110t299 -111t117 -283t-117 -282q-117 -111 -299 -111zM439 1194q-41 0 -69 -37t-28 -91t28 -92t69 -38q42 0 70 37t28 92t-28 92t-70 37zM356 -20v8l865 1466h262v-8l-865 -1466
h-262zM438 672q-182 0 -299 110t-116 283q0 172 116 283q117 110 299 110t299 -110t117 -283t-117 -283t-299 -110z" />
    <glyph glyph-name="guilsinglleft" unicode="&#x2039;" horiz-adv-x="794" 
d="M348 66l-295 460l295 459h387l4 -14l-274 -436l285 -453l-5 -16h-397z" />
    <glyph glyph-name="guilsinglright" unicode="&#x203a;" horiz-adv-x="794" 
d="M446 985l295 -461l-295 -458h-387l-4 14l275 436l-285 453l4 16h397z" />
    <glyph glyph-name="fraction" unicode="&#x2044;" 
d="M-563 -20v8l864 1466h262v-8l-864 -1466h-262z" />
    <glyph glyph-name="lira" unicode="&#x20a4;" horiz-adv-x="1183" 
d="M637 500v-88h518v-412h-1112v412h145v88h-114v192h114v78h-114v191h119q23 225 192 361q170 136 430 136q201 0 346 -69l-106 -351q-117 43 -221 43q-164 0 -191 -120h354v-191h-360v-78h360v-192h-360z" />
    <glyph glyph-name="Euro" unicode="&#x20ac;" horiz-adv-x="1226" 
d="M838 -25q-232 1 -408 133t-237 365h-142v211h113v76h-113v211h146q63 229 239 358t434 129q201 0 344 -74l-104 -350q-119 43 -223 43q-145 0 -211 -106h373v-211h-426q-2 -14 -2 -45v-31h428v-211h-379q66 -117 229 -117q102 0 215 43l107 -350q-151 -74 -383 -74z" />
    <glyph glyph-name="uni20B2" unicode="&#x20b2;" horiz-adv-x="1255" 
d="M631 567v287h571v-698q-113 -68 -272 -109v-252h-445v240q-227 51 -342 223t-115 432t115 438t324 252v258h444v-223q176 -27 303 -94l-135 -367q-143 80 -305 80t-232 -80t-69 -260q0 -180 52 -247t171 -66q59 0 109 14v172h-174z" />
    <glyph glyph-name="uni20B9" unicode="&#x20b9;" horiz-adv-x="1216" 
d="M1165 1135h-274l-4 -17q96 -37 141 -121h137v-211h-106q-25 -139 -148 -219t-274 -80h-19l-2 -16l416 -451l-4 -20h-530l-424 475v207h295q158 0 213 104h-508v211h512q-53 104 -219 105h-293v332h1091v-299z" />
    <glyph glyph-name="uni20BA" unicode="&#x20ba;" horiz-adv-x="1335" 
d="M844 670h444q0 -314 -202 -492t-521 -178h-368v526l-158 -69v231l158 70v76l-158 -68v229l158 70v369h448v-240l244 109h4v-232l-248 -108v-78l244 108h4v-229l-248 -109v-274q90 0 145 74q54 74 54 215z" />
    <glyph glyph-name="trademark" unicode="&#x2122;" horiz-adv-x="1904" 
d="M844 645v789h282l199 -308h16l199 308h281v-789h-283v328l-16 4l-125 -215h-140l-122 215l-15 -4v-328h-276zM238 645v531h-226v258h752v-258h-225v-531h-301z" />
    <glyph glyph-name="uni2153" unicode="&#x2153;" horiz-adv-x="2129" 
d="M1997 229q-1 -103 -107 -173t-279 -70t-311 69l93 219q111 -55 216 -55t105 51t-127 52h-88v167h88q123 1 123 53t-96 52t-197 -57l-96 202q139 92 304 92t255 -62t90 -163q0 -127 -143 -180v-16q170 -43 170 -181zM465 616v512l-8 5l-201 -86l-94 229l356 158h242v-818
h-295zM530 -20v8l865 1466h262v-8l-864 -1466h-263z" />
    <glyph glyph-name="uni2154" unicode="&#x2154;" horiz-adv-x="2164" 
d="M2032 229q0 -103 -107 -173t-280 -70t-310 69l92 219q111 -55 217 -55t105 51q0 51 -127 52h-88v167h88q123 1 123 53t-96 52t-197 -57l-96 202q139 92 304 92t255 -62t90 -163q0 -127 -143 -180v-16q170 -43 170 -181zM219 616v222l320 254q51 43 51 71q0 47 -90 47
t-213 -71l-101 200q160 109 332 109t266 -70t94 -184t-151 -231l-135 -107v-6h280v-234h-653zM565 -20v8l865 1466h262v-8l-865 -1466h-262z" />
    <glyph glyph-name="partialdiff" unicode="&#x2202;" horiz-adv-x="1284" 
d="M578 348q82 0 135 78t55 201q-63 39 -142 39t-126 -48t-47 -126q0 -76 37 -110t88 -34zM555 -25q-221 1 -365 133t-145 358q0 226 150 374t372 147q133 0 221 -45l11 6q3 119 -59 186q-62 66 -176 66t-220 -59l-119 321q180 98 393 99q283 1 445 -179t162 -556
q1 -376 -187 -614q-188 -237 -483 -237z" />
    <glyph glyph-name="emptyset" unicode="&#x2205;" horiz-adv-x="1474" 
d="M1047 635q0 94 -35 174l-441 -479q72 -47 166 -47q137 0 224 98q86 98 86 254zM428 635q0 -94 35 -174l440 479q-72 47 -166 47q-137 0 -223 -98t-86 -254zM1421 1270v-17l-172 -188q143 -180 144 -430q-1 -291 -185 -475t-471 -185q-221 0 -387 115l-82 -90h-215v16
l172 189q-143 180 -143 430q0 291 184 475t471 184q221 0 387 -114l82 90h215z" />
    <glyph glyph-name="product" unicode="&#x220f;" horiz-adv-x="1462" 
d="M1419 1434v-412h-149v-1145h-449v1145h-182v-1145h-446v1145h-150v412h1376z" />
    <glyph glyph-name="summation" unicode="&#x2211;" horiz-adv-x="1222" 
d="M61 -205v307l412 525l-399 497v310h1095v-363h-516l-4 -16l334 -426l-358 -455l4 -16h553v-363h-1121z" />
    <glyph glyph-name="minus" unicode="&#x2212;" horiz-adv-x="1024" 
d="M63 506v309h898v-309h-898z" />
    <glyph glyph-name="radical" unicode="&#x221a;" horiz-adv-x="1404" 
d="M2 555v371h475l170 -359h17l315 969h424l-514 -1536h-410l-284 555h-193z" />
    <glyph glyph-name="infinity" unicode="&#x221e;" horiz-adv-x="1699" 
d="M522 502q94 0 156 125q-82 156 -172 155q-51 0 -83 -39t-32 -99t35 -101t96 -41zM1194 532q51 0 83 39t32 99t-35 102q-35 41 -96 41q-94 0 -156 -125q82 -156 172 -156zM453 174q-188 0 -303 139t-115 339t129 344t338 144t348 -196h16q135 197 381 197q188 1 303 -139
t115 -340t-129 -344t-338 -144t-348 197h-16q-135 -197 -381 -197z" />
    <glyph glyph-name="integral" unicode="&#x222b;" horiz-adv-x="1052" 
d="M178 -340q-158 0 -276 68l131 340q47 -33 100 -33q104 0 113 88l71 969q15 221 145 345t353 124q160 0 277 -70l-129 -338q-47 31 -101 31t-82 -24q-29 -24 -32 -64l-72 -969q-16 -221 -146 -344t-352 -123z" />
    <glyph glyph-name="approxequal" unicode="&#x2248;" horiz-adv-x="1024" 
d="M707 238q-76 0 -204 50t-210 50t-191 -66v281q102 86 215 86q76 0 204 -50t210 -50t191 65v-278q-102 -88 -215 -88zM707 682q-76 0 -204 50t-210 50t-191 -65v280q102 86 215 86q76 0 204 -50t210 -50t191 66v-279q-102 -88 -215 -88z" />
    <glyph glyph-name="notequal" unicode="&#x2260;" horiz-adv-x="1024" 
d="M922 729h-230l-61 -137h291v-311h-422l-86 -187h-305l86 187h-93v311h224l61 137h-285v311h422l86 187h305l-86 -187h93v-311z" />
    <glyph glyph-name="lessequal" unicode="&#x2264;" horiz-adv-x="1024" 
d="M63 -14v309h898v-309h-898zM961 299l-898 371v309l898 369v-353l-451 -164v-8l451 -159v-365z" />
    <glyph glyph-name="greaterequal" unicode="&#x2265;" horiz-adv-x="1024" 
d="M63 -14v309h898v-309h-898zM63 299v352l451 166v8l-451 158v365l898 -369v-309z" />
    <glyph glyph-name="lozenge" unicode="&#x25ca;" horiz-adv-x="1226" 
d="M610 432h8l162 281l-166 291h-8l-160 -283zM453 0l-428 717l428 717h319l430 -717l-430 -717h-319z" />
    <glyph glyph-name="uniA78B" unicode="&#xa78b;" horiz-adv-x="681" 
d="M168 475l-72 959h490l-72 -959h-346z" />
    <glyph glyph-name="uniA78C" unicode="&#xa78c;" horiz-adv-x="643" 
d="M158 373l-72 938h471l-72 -938h-327z" />
    <glyph glyph-name="Iacute_J.loclNLD" horiz-adv-x="1972" 
d="M1397 553v881h448v-887q0 -272 -156.5 -421t-410.5 -149q-184 0 -352 76l94 404q109 -68 227 -68q150 0 150 164zM850 1434v-324h-158v-786h158v-324h-766v324h160v786h-160v324h766zM1925 1847v-20l-293 -281h-352v23l172 278h473zM872 1847v-20l-292 -281h-353v23
l172 278h473z" />
    <glyph glyph-name="iacute_j.loclNLD" horiz-adv-x="1206" 
d="M690 184v865h430v-852q0 -252 -116.5 -399.5t-360.5 -223.5l-133 324q96 55 138 119.5t42 166.5zM86 0v1049h430v-1049h-430zM1286 1536v-16l-313 -363h-289l174 379h428zM682 1536v-16l-313 -363h-289l174 379h428z" />
    <glyph glyph-name="i.loclTRK" horiz-adv-x="602" 
d="M86 0v1049h430v-1049h-430zM301 1128q-119 0 -184.5 55.5t-65.5 154.5t65.5 154.5t184.5 55.5t185.5 -55t66.5 -155t-66.5 -155t-185.5 -55z" />
    <glyph glyph-name="caroncomb.alt" 
d="M-391 1120l16 416h365l-135 -416h-246z" />
    <glyph glyph-name="uni0308.case" 
d="M-349 1509q-97 0 -150.5 51.5t-53.5 143.5t53.5 143t150.5 51t151.5 -51t54.5 -143t-54.5 -143.5t-151.5 -51.5zM-848 1509q-96 0 -150.5 51.5t-54.5 143.5t54.5 143t150.5 51t150.5 -51t54.5 -143t-54.5 -143.5t-150.5 -51.5z" />
    <glyph glyph-name="uni0307.case" 
d="M-305 1495q-119 0 -184.5 55.5t-65.5 155.5t65.5 155.5t184.5 55.5t185.5 -55.5t66.5 -155.5t-66.5 -155.5t-185.5 -55.5z" />
    <glyph glyph-name="gravecomb.case" 
d="M-55 1546h-353l-292 281v20h473l172 -278v-23z" />
    <glyph glyph-name="acutecomb.case" 
d="M-625 1546v23l172 278h473v-20l-292 -281h-353z" />
    <glyph glyph-name="uni030B.case" 
d="M-119 1847v-16l-157 -291h-287l57 307h387zM-563 1847v-16l-158 -291h-289l60 307h387z" />
    <glyph glyph-name="uni0302.case" 
d="M-887 1546l285 301h338l287 -301h-351l-104 123h-8l-105 -123h-342z" />
    <glyph glyph-name="uni030C.case" 
d="M20 1847l-284 -301h-338l-287 301h350l105 -123h8l104 123h342z" />
    <glyph glyph-name="uni0306.case" 
d="M-413 1497q-169 0 -277.5 98.5t-108.5 251.5h277q0 -45 32.5 -72.5t82.5 -27.5t83 27.5t33 72.5h264q0 -154 -108.5 -252t-277.5 -98z" />
    <glyph glyph-name="uni030A.case" 
d="M-343 1659q34 0 58.5 24.5t24.5 57.5t-24.5 57.5t-58.5 24.5t-57.5 -24.5t-23.5 -57.5t23.5 -57.5t57.5 -24.5zM-342 1483q-121 0 -204 74.5t-83 183t83 183.5t204 75t203 -75t82 -183.5t-82 -183t-203 -74.5z" />
    <glyph glyph-name="tildecomb.case" 
d="M-375 1501q-78 0 -172 64.5t-132 64.5t-60.5 -31.5t-12.5 -82.5l-172 -11q-57 184 19 290t205 106q78 0 172 -64.5t133 -64.5t60.5 31.5t12.5 82.5l172 10q57 -182 -19.5 -288.5t-205.5 -106.5z" />
    <glyph glyph-name="uni0304.case" 
d="M-831 1552v291h806v-291h-806z" />
    </font>
</defs>
</svg>
